<svg xmlns="http://www.w3.org/2000/svg" id="Layer_1" width="32" height="32" version="1" viewBox="0 0 32 32"><g id="g5652"><path id="path7" fill="#f37a5d" fill-rule="evenodd" d="M 32,16 C 32,24.835821 24.835821,31.973466 16,31.973466 7.164179,31.973466 0,24.835821 0,16 0,7.164179 7.164179,0.026534 16,0.026534 24.835821,0.026534 32,7.164179 32,16 l 0,0 z" clip-rule="evenodd"/><path id="path4848" fill="#f35c4b" d="M 13.765625 31.75 C 14.502262 31.853553 15.234715 31.972656 16 31.972656 C 17.104478 31.972656 18.183098 31.862818 19.224609 31.650391 C 20.266121 31.437963 21.271426 31.12431 22.228516 30.720703 C 23.185605 30.317096 24.0941 29.823539 24.945312 29.25 C 25.796525 28.676461 26.588619 28.023003 27.3125 27.300781 C 28.036381 26.578559 28.692485 25.787158 29.267578 24.9375 C 29.825262 24.113563 30.299368 23.228783 30.697266 22.304688 L 16.021484 7.6289062 L 15.777344 7.6289062 L 15.777344 9.4296875 L 15.755859 9.4296875 L 15.554688 9.4296875 L 15.554688 10.095703 L 15.777344 10.318359 L 15.554688 10.318359 L 15.554688 10.339844 L 15.355469 10.140625 C 15.355469 10.140625 15.356204 10.161374 15.333984 10.183594 L 15.554688 10.404297 L 15.554688 11.873047 L 16 12.318359 L 16 12.339844 L 15.777344 12.117188 L 15.554688 12.117188 L 15.554688 12.337891 L 15.333984 12.117188 L 15.111328 12.117188 L 15.111328 13.917969 L 15.310547 14.117188 L 15.111328 14.117188 L 15.111328 15.005859 L 15.333984 15.228516 L 14.888672 15.228516 L 14.888672 16.5625 L 15.111328 16.785156 L 14.888672 16.785156 L 14.888672 17.228516 L 15.111328 17.451172 L 15.111328 17.695312 L 14.888672 17.472656 L 14.445312 17.472656 L 14.244141 17.273438 C 14.244141 17.295667 14.222656 17.296139 14.222656 17.318359 L 14.445312 17.541016 L 14.445312 18.806641 L 14.667969 19.029297 L 14.445312 19.029297 L 14.445312 19.695312 L 14.666016 19.916016 L 14.666016 20.138672 L 14.445312 19.917969 L 14.222656 19.917969 L 14.222656 21.029297 L 14.443359 21.25 L 14.222656 21.25 L 14.222656 21.984375 C 14.222656 22.051045 14.177989 22.095703 14.111328 22.095703 L 13.777344 22.095703 L 13.777344 23.050781 L 13.533203 22.806641 L 12.867188 22.806641 L 10.199219 20.140625 L 9.5332031 20.140625 L 9.5332031 21.71875 L 7.9550781 20.140625 L 7.2890625 20.140625 L 7.2890625 23.273438 L 7.5117188 23.496094 L 6.1777344 23.496094 L 6.1777344 24.162109 L 13.765625 31.75 z "/><path id="path9" fill="#fff" d="m 15.777777,7.628731 0,1.8 -0.02222,0 -0.2,0 0,0.666667 0.222223,0 0.111111,0 c 0.06667,0 0.111111,0.04445 0.111111,0.111111 l 0,0.333334 0.222222,0 c 0.111111,-0.02222 0.2,0 0.222222,0.04445 l 0,-0.711111 -0.133333,0 c -0.02222,0 -0.04445,0 -0.06667,0 l 0,-0.444445 0,0 -0.222222,0 0,-1.8 -0.24445,0 0,0 z m -0.422222,2.511112 c 0,0.02222 -0.02222,0.02222 -0.02222,0.04445 0.02222,-0.02222 0.02222,-0.04445 0.02222,-0.04445 0,0 0,0 0,0 l 0,0 z m 0.2,0.177777 0,1.555556 0.222222,0 0,-1.555556 -0.222222,0 0,0 z M 16,10.784287 l 0,0.666667 0.222222,0 0,-0.666667 -0.222222,0 0,0 z m 0,0.866667 0,0.222222 0.444444,0 0,-0.222222 -0.444444,0 0,0 z m -0.888889,0.466667 0,1.8 0.222222,0 0,-1.8 -0.222222,0 0,0 z m 0.444444,0 0,1.8 0.222222,0 0,-1.022222 c 0,-0.02222 0,-0.02222 0,-0.04445 l 0,-0.733333 -0.222222,0 0,0 z m 0.444445,0 0,0.666666 0.444444,0 0,-0.666666 -0.444444,0 0,0 z m 0,0.888889 0,0.888889 0.666666,0 0,-0.888889 -0.666666,0 0,0 z m -0.888889,1.111111 0,0.888888 0.222222,0 0,-0.888888 -0.222222,0 0,0 z m 0.444444,0 0,2.444444 0.222222,0 0,-2.444444 -0.222222,0 0,0 z m 0.444445,0 0,2.444444 0.222222,0 0,-1 c 0,-0.06667 0.04445,-0.111111 0.111111,-0.111111 l 0.333333,0 0,-1.333333 -0.666666,0 0,0 z m -1.111112,1.11111 0,1.333334 0.444445,0 0,-1.333334 -0.444445,0 0,0 z m 1.555556,0.444445 0,0.888889 0.666667,0 0,-0.888889 -0.666667,0 0,0 z m -1.555556,1.111111 0,0.444445 0.111111,0 c 0.06667,0 0.111112,0.04445 0.111112,0.111111 l 0,1.444444 0.222222,0 0,-2 -0.444445,0 0,0 z m 0.666667,0 0,2 0.222222,0 0,-2 -0.222222,0 0,0 z m 0.444445,0 0,2 0.222222,0 0,-2 -0.222222,0 0,0 z m 0.444444,0 0,2 0.222222,0 0,-0.777777 c 0,-0.04445 0.04445,-0.111112 0.08889,-0.111112 l 0.02222,0 0.333333,0 0,-1.111111 -0.666666,0 0,0 z m -2.199999,0.488889 c -0.02222,0.02222 -0.02222,0.02222 -0.02222,0.04445 0,-0.02222 0.02222,-0.02222 0.02222,-0.04445 l 0,0 0,0 z m 0.2,0.2 0,1.333334 0.444443,0 0,-1.333334 -0.444443,0 0,0 z m 2.444444,0.666667 0,0.666667 0.666666,0 0,-0.666667 -0.666666,0 0,0 z m -2.444444,0.888889 0,0.666666 0.11111,0 c 0.06667,0 0.111111,0.04444 0.111111,0.111111 l 0,1.222223 0.222222,0 0,-2 -0.444443,0 0,0 z m 0.666666,0 0,2 0.222222,0 0,-2 -0.222222,0 0,0 z m 0.444444,0 0,2 0.222222,0 0,-2 -0.222222,0 0,0 z m 0.444445,0 0,2 0.222222,0 0,-2 -0.222222,0 0,0 z m 0.444444,0 0,2 0.222222,0 0,-2 -0.222222,0 0,0 z m 0.444445,0 0,2 0.222222,0 0,-1 c 0,-0.04444 0.04445,-0.111111 0.08889,-0.111111 l 0.02222,0 0.333333,0 0,-0.888889 -0.666667,0 0,0 z m -2.666667,0.888889 0,1.111111 0.222223,0 0,-1.111111 -0.222223,0 0,0 z m -6.933334,0.222222 0,3.133333 0.666667,0 0,-3.133333 -0.666667,0 0,0 z m 2.244445,0 0,3.133333 0.666667,0 0,-3.133333 -0.666667,0 0,0 z m 7.8,0 0,0.888889 0.444445,0 0,-0.888889 -0.444445,0 0,0 z m 4.48889,0 0,3.133333 0.666665,0 0,-3.133333 -0.666665,0 0,0 z m 2.222221,0 0,3.133333 0.666667,0 0,-3.133333 -0.666667,0 0,0 z m -9.822222,1.111111 0,0.733333 c 0,0.06667 -0.04445,0.111111 -0.111111,0.111111 l -0.333333,0 0,1.155556 c 0,0 0,0 0,0 l 0.666667,0 c 0,0 0,0 0,0 l 0,-2 -0.222223,0 0,0 z m 0.444444,0 0,2 c 0,0 0,0 0,0 l 0.222222,0 c 0,0 0,0 0,0 l 0,-2 -0.222222,0 0,0 z m 0.444445,0 0,2 c 0,0 0,0 0,0 l 0.222222,0 0,-2 -0.222222,0 0,0 z m 0.444444,0 0,2 0.222222,0 c 0,0 0,0 0,0 l 0,-2 -0.222222,0 0,0 z m 0.444445,0 0,2 c 0,0 0,0 0,0 l 0.222222,0 0,-2 -0.222222,0 0,0 z m 0.444444,0 0,2 0.222222,0 0,-2 -0.222222,0 0,0 z m 0.444445,0 0,2 0.222222,0 c 0,0 0,0 0,0 l 0,-2 -0.222222,0 0,0 z m 0.444444,0 0,2 c 0,0 0,0 0,0 l 0.666667,0 0,-0.533333 c 0,-0.02222 0,-0.04444 0,-0.06667 l 0,-0.755556 -0.08889,0 c -0.02222,0 -0.02222,0 -0.04445,0 l -0.02222,0 0,0 c -0.02222,0 -0.02222,0 -0.02222,-0.02222 0,0 0,0 0,0 l 0,0 c 0,0 0,0 0,0 l 0,0 c 0,0 0,0 0,0 0,0 0,-0.02222 0,-0.02222 l 0,0 c 0,0 0,0 0,-0.02222 0,0 0,0 0,0 0,0 0,-0.02222 0,-0.02222 l 0,0 c 0,-0.02222 0,-0.04444 0,-0.06667 l 0,-0.533333 -0.488894,0 0,0.04444 z m -4.466666,1.555555 0,0.444445 0.666666,0 c 0,0 0,0 0,0 l 0,-0.444445 -0.666666,0 0,0 z m 5.355555,0 0,0.444445 0.666667,0 0,-0.444445 -0.666667,0 0,0 z m -12.044444,0.688889 0,0.666667 19.644444,0 0,-0.666667 -19.644444,0 0,0 z M 6,24.339843 c 0.02222,0.02222 0.04445,0.02222 0.06667,0.02222 C 6.04445,24.384287 6,24.362065 6,24.339843 l 0,0 z m 20,0 c -0.02222,0.02222 -0.04445,0.02222 -0.06667,0.02222 0.02222,0.02222 0.06667,0 0.06667,-0.02222 l 0,0 z"/></g></svg>