<svg xmlns="http://www.w3.org/2000/svg" id="Layer_1" width="32" height="32" version="1" viewBox="0 0 32 32"><g id="g7478"><path id="path7" fill="#3a6c87" fill-rule="evenodd" d="M 32,16 C 32,24.835821 24.835821,31.973466 16,31.973466 7.164179,31.973466 0,24.835821 0,16 0,7.164179 7.164179,0.026534 16,0.026534 24.835821,0.026534 32,7.164179 32,16 l 0,0 z" clip-rule="evenodd"/><path id="path3351" fill="#2f536e" d="M 15.244141 31.896484 C 15.500046 31.908605 15.741085 31.972656 16 31.972656 C 17.104478 31.972656 18.183098 31.862818 19.224609 31.650391 C 20.266121 31.437963 21.271426 31.12431 22.228516 30.720703 C 23.185605 30.317096 24.0941 29.823539 24.945312 29.25 C 25.796525 28.676461 26.588619 28.023003 27.3125 27.300781 C 28.036381 26.578559 28.692485 25.787158 29.267578 24.9375 C 29.694952 24.306087 30.028403 23.611485 30.363281 22.919922 L 20.320312 12.876953 L 20.095703 12.876953 L 16.679688 9.4609375 L 15.298828 9.4609375 L 15.257812 9.7597656 L 14.845703 9.3476562 L 14.845703 9.3652344 L 14.845703 9.3710938 L 15.255859 9.78125 L 15.117188 10.818359 L 15.367188 11.068359 L 14.167969 11.068359 L 13.759766 12.652344 L 13.984375 12.876953 L 11.904297 12.876953 L 11.791016 13.556641 L 11.994141 13.759766 L 11.746094 13.759766 L 11.746094 13.783203 L 11.474609 15.591797 L 11.701172 15.818359 L 9.6191406 15.818359 L 9.5527344 16.271484 L 9.8691406 16.587891 L 9.8691406 16.724609 L 9.6425781 16.498047 L 9.5058594 16.498047 L 9.2128906 18.308594 L 9.4609375 18.556641 L 7.5839844 18.556641 L 7.515625 19.009766 L 7.7402344 19.234375 L 7.4941406 19.234375 L 7.1542969 21.724609 L 7.4023438 21.972656 L 6 21.972656 L 6 22.652344 L 15.244141 31.896484 z "/><path id="path9" fill="#fff" d="m 14.846153,9.348419 c 0,0.02262 0,0.02262 0,0 0,0.02262 0,0.02262 0,0.02262 0,0 0,0 0,-0.02262 l 0,0 z m 0.452489,0.113122 -0.180995,1.357466 0.203619,0 0,-0.339366 c 0,-0.06787 0.04525,-0.113122 0.113123,-0.113122 0.06787,0 0.135746,0.06787 0.113122,0.113122 l 0,0.339366 0.226244,0 0,-0.904977 c 0,-0.113122 0.06787,-0.20362 0.180996,-0.226244 0.135746,-0.02262 0.271493,0.0905 0.271493,0.226244 l 0,0.904977 0.226244,0 0,-0.339366 c 0,-0.04525 0.04525,-0.113122 0.0905,-0.113122 0.06787,-0.02262 0.158371,0.04525 0.135747,0.113122 l 0,0.339366 0.20362,0 -0.20362,-1.357466 -1.380091,0 0,0 z m -1.131221,1.606335 -0.40724,1.583711 0.429864,0 0,-0.769231 c 0,-0.113122 0.02262,-0.248869 0.113123,-0.361991 0.0905,-0.113122 0.248868,-0.226244 0.475112,-0.226244 0.20362,0 0.361991,0.113122 0.452489,0.226244 0.0905,0.135747 0.113122,0.271493 0.113122,0.361991 l 0,0.769231 0.226244,0 0,-0.769231 c 0,-0.113122 0.02262,-0.248869 0.113122,-0.361991 0.0905,-0.113122 0.248869,-0.226244 0.452489,-0.226244 0.226245,0 0.384616,0.113122 0.452489,0.226244 0.0905,0.135747 0.113122,0.271493 0.113122,0.361991 l 0,0.769231 0.226245,0 0,-0.746607 c 0,-0.113122 0.02262,-0.248868 0.113122,-0.361991 0.0905,-0.135746 0.248868,-0.248868 0.452488,-0.248868 0.20362,0 0.384616,0.113122 0.452489,0.248868 0.0905,0.113123 0.113122,0.248869 0.113122,0.361991 l 0,0.746607 0.429865,0 -0.40724,-1.583711 -2.013575,0 c -0.02262,0 -0.06787,0 -0.0905,0 l -1.809954,0 0,0 z m 0.588235,0.452489 c -0.158372,0 -0.226245,0.04525 -0.271493,0.135747 -0.04525,0.0905 -0.06787,0.180995 -0.06787,0.226244 l 0,0.769231 0.678732,0 0,-0.769231 c 0,-0.06787 -0.02262,-0.158371 -0.06787,-0.248869 -0.04525,-0.06787 -0.113122,-0.113122 -0.271493,-0.113122 l 0,0 z m 1.357466,0 c -0.158371,0 -0.226245,0.04525 -0.271493,0.135747 -0.04525,0.0905 -0.06787,0.180995 -0.06787,0.226244 l 0,0.769231 0.678733,0 0,-0.769231 c 0,-0.06787 -0.02262,-0.158371 -0.06787,-0.248869 -0.04525,-0.06787 -0.113122,-0.113122 -0.271493,-0.113122 l 0,0 z m 1.357466,0.02262 c -0.158371,0 -0.226244,0.06787 -0.271493,0.135747 -0.04525,0.06787 -0.06787,0.180995 -0.06787,0.226244 l 0,0.746606 0.678733,0 0,-0.746606 c 0,-0.06787 -0.02262,-0.158371 -0.06787,-0.226244 -0.04525,-0.0905 -0.113123,-0.135747 -0.271494,-0.135747 l 0,0 z m -5.565611,1.334842 -0.113122,0.678733 0.339367,0 0,-0.339367 c 0,-0.04525 0.04525,-0.113122 0.0905,-0.113122 0.06787,-0.02262 0.135747,0.04525 0.135747,0.113122 l 0,0.339367 0.226244,0 0,-0.339367 c 0,-0.04525 0.04525,-0.113122 0.0905,-0.113122 0.06787,-0.02262 0.135747,0.04525 0.135747,0.113122 l 0,0.339367 0.226244,0 0,-0.113122 c 0,-0.04525 0.04525,-0.113122 0.0905,-0.113122 0.06787,-0.02262 0.135747,0.04525 0.135747,0.113122 l 0,0.113122 1.809954,0 0,-0.678733 -3.167421,0 0,0 z m 3.416289,0 0,0.226244 1.583711,0 0,-0.20362 0,-0.02262 -1.583711,0 0,0 z m 2.714933,0 0,0 -0.113122,0.02262 -0.791856,0 0,0.656109 1.83258,0 0,-0.113123 c 0,-0.04525 0.04525,-0.113122 0.0905,-0.113122 0.06787,-0.02262 0.135746,0.04525 0.135746,0.113122 l 0,0.113123 0.226245,0 0,-0.339367 c 0,-0.04525 0.02262,-0.113122 0.0905,-0.113122 0.06787,-0.02262 0.135747,0.04525 0.135747,0.113122 l 0,0.339367 0.226244,0 0,-0.339367 c 0,-0.04525 0.04525,-0.113122 0.0905,-0.113122 0.06787,-0.02262 0.135747,0.04525 0.135747,0.113122 l 0,0.339367 0.339366,0 -0.113122,-0.678734 -2.285068,0 0,0 z m -2.714933,0.452489 0,0.226244 1.583711,0 0,-0.226244 -1.583711,0 0,0 z m -3.57466,0.452488 -0.271493,1.809954 0.429864,0 0,-0.995475 c 0,-0.113121 0.02262,-0.248868 0.113122,-0.36199 0.0905,-0.135747 0.248869,-0.248869 0.475114,-0.248869 0.20362,0 0.361991,0.113122 0.452488,0.248869 0.0905,0.113122 0.113123,0.248869 0.113123,0.36199 l 0,0.995475 0.226244,0 0,-0.995475 c 0,-0.113121 0.02262,-0.248868 0.113122,-0.36199 0.0905,-0.135747 0.248869,-0.248869 0.452489,-0.248869 0.226244,0 0.384615,0.113122 0.452489,0.248869 0.0905,0.113122 0.113122,0.248869 0.113122,0.36199 l 0,0.995475 0.226243,0 0,-0.791855 c 0,-0.04525 0.04525,-0.113122 0.0905,-0.113122 0.06787,-0.02262 0.135747,0.04525 0.135747,0.113122 l 0,0.791855 0.226244,0 0,-1.832578 -3.348418,0 0,0.02262 z m 3.57466,0 0,0.226245 1.583711,0 0,-0.226245 -1.583711,0 0,0 z m 1.809955,0 0,1.832579 0.226245,0 0,-0.791855 c 0,-0.04525 0.04525,-0.113123 0.0905,-0.113123 0.06787,-0.02262 0.135746,0.04525 0.135746,0.113123 l 0,0.791855 0.226245,0 0,-0.995475 c 0,-0.113123 0.02262,-0.248868 0.113122,-0.36199 0.0905,-0.135747 0.248869,-0.226245 0.475113,-0.248869 0.20362,0 0.361991,0.113122 0.452489,0.248869 0.0905,0.113122 0.113122,0.248867 0.113122,0.36199 l 0,0.995475 0.226244,0 0,-0.995475 c 0,-0.113123 0.02262,-0.248868 0.113122,-0.36199 0.0905,-0.135747 0.248869,-0.226245 0.452489,-0.248869 0.226245,0 0.384616,0.113122 0.475113,0.248869 0.0905,0.113122 0.113123,0.248867 0.113123,0.36199 l 0,0.995475 0.429864,0 -0.294118,-1.832579 -3.348417,0 0,0 z m -1.809955,0.452489 0,0.226244 1.583711,0 0,-0.226244 -1.583711,0 0,0 z m -2.850678,0 c -0.158371,0 -0.226244,0.06787 -0.271493,0.135747 -0.04525,0.06787 -0.06787,0.180994 -0.06787,0.226243 l 0,0.995475 0.678733,0 0,-0.995475 c 0,-0.06787 -0.02262,-0.15837 -0.06787,-0.226243 -0.04525,-0.06787 -0.113122,-0.135747 -0.271493,-0.135747 l 0,0 z m 1.380091,0 c -0.158371,0 -0.20362,0.06787 -0.271493,0.135747 -0.04525,0.06787 -0.0905,0.180994 -0.0905,0.226243 l 0,0.995475 0.678733,0 0,-0.995475 c 0,-0.06787 -0.02262,-0.15837 -0.06787,-0.226243 -0.02262,-0.06787 -0.0905,-0.135747 -0.248868,-0.135747 l 0,0 z m 4.547511,0 c -0.158371,0 -0.226244,0.06787 -0.271493,0.135747 -0.04525,0.06787 -0.06787,0.180994 -0.06787,0.226243 l 0,0.995475 0.678733,0 0,-0.995475 c 0,-0.06787 -0.02262,-0.15837 -0.06787,-0.226243 -0.06787,-0.06787 -0.135747,-0.135747 -0.271494,-0.135747 l 0,0 z m 1.357466,0 c -0.158371,0 -0.20362,0.06787 -0.248869,0.135747 -0.04525,0.06787 -0.06787,0.180994 -0.06787,0.226243 l 0,0.995475 0.678733,0 0,-0.995475 c 0,-0.06787 -0.02262,-0.15837 -0.06787,-0.226243 -0.06787,-0.06787 -0.158371,-0.135747 -0.294117,-0.135747 l 0,0 z m -4.43439,0.452488 0,0.226244 1.583711,0 0,-0.226244 -1.583711,0 0,0 z m 0,0.452489 0,0.226244 1.583711,0 0,-0.226244 -1.583711,0 0,0 z m 0,0.452488 0,0.226245 1.583711,0 0,-0.06787 c 0,-0.02262 0,-0.04525 0,-0.06787 l 0,-0.0905 -1.583711,0 0,0 z m -5.701357,0.226245 -0.06787,0.452489 5.542986,0 0,-0.452489 -5.475113,0 0,0 z m 7.511312,0 0,0.452489 5.542987,0 -0.06787,-0.452489 -5.475115,0 0,0 z m -1.809955,0.226244 0,0.226245 1.583711,0 0,-0.226244 -1.583711,0 0,0 z m -5.814479,0.452489 -0.294118,1.809955 0.429865,0 0,-1.809955 -0.135747,0 0,0 z m 0.361991,0 0,1.809955 0.452489,0 0,-1.583711 -0.113123,0 c -0.06787,0 -0.113122,-0.04525 -0.135746,-0.113122 0,-0.06787 0.04525,-0.113122 0.113122,-0.135746 l -0.316742,0 0,0.02262 z m 0.81448,0 c 0.06787,0 0.113122,0.06787 0.113122,0.135747 0,0.06787 -0.06787,0.113122 -0.113122,0.113122 l -0.113123,0 0,1.58371 0.678734,0 0,-1.58371 -0.113123,0 c -0.06787,0 -0.113122,-0.04525 -0.135746,-0.113122 0,-0.06787 0.04525,-0.113123 0.113122,-0.135747 l -0.429864,0 0,0 z m 0.904977,0 c 0.06787,0 0.113122,0.06787 0.113122,0.135747 0,0.06787 -0.06787,0.113122 -0.113122,0.113122 l -0.113122,0 0,1.58371 0.678733,0 0,-1.58371 -0.113122,0 c -0.02262,0 -0.02262,0 -0.02262,0 0,0 -0.02262,-0.02262 -0.02262,-0.02262 0,0 0,0 -0.02262,0 0,0 -0.02262,-0.02262 -0.02262,-0.02262 l 0,0 c 0,0 0,-0.02262 0,-0.02262 0,0 0,0 0,0 0,-0.02262 0,-0.02262 0,-0.04525 0,0 0,0 0,0 0,0 0,-0.02262 0,-0.02262 0,0 0,0 0,0 0,-0.02262 0,-0.02262 0.02262,-0.04525 l 0,0 c 0,0 0,-0.02262 0.02262,-0.02262 0.02262,-0.02262 0.02262,-0.02262 0.04525,-0.02262 l -0.452488,0 0,-0.02262 z m 0.904978,0 c 0,0.02262 0,0.02262 0,0 0.02262,0 0.02262,0 0.02262,0 0.02262,0 0.02262,0.02262 0.02262,0.02262 0,0 0,0 0,0 0,0 0,0 0.02262,0.02262 0,0 0,0 0,0.02262 0,0.02262 0.02262,0.02262 0.02262,0.02262 0,0 0,0 0,0.02262 l 0,0 c 0,0 0,0 0,0.02262 0,0.02262 0,0.02262 0,0.02262 0,0 0,0 0,0.02262 0,0 0,0.02262 0,0.02262 l 0,0 c 0,0 -0.02262,0.02262 -0.02262,0.02262 -0.02262,0.02262 -0.04525,0.02262 -0.06787,0.02262 l -0.113122,0 0,1.583711 0.678733,0 0,-1.583711 -0.113122,0 c -0.06787,0 -0.113122,-0.04525 -0.135747,-0.113122 0,-0.06787 0.04525,-0.113122 0.113122,-0.135747 l -0.429864,0 0,0 z m 0.904977,0 c 0.06787,0 0.113122,0.06787 0.113122,0.135747 0,0.06787 -0.06787,0.113122 -0.113122,0.113122 l -0.113122,0 0,1.58371 0.678733,0 0,-1.58371 -0.113122,0 c -0.06787,0 -0.113122,-0.04525 -0.113122,-0.113122 -0.02262,-0.06787 0.04525,-0.113123 0.0905,-0.135747 l -0.429864,0 0,0 z m 0.927602,0 c 0.06787,0 0.113122,0.06787 0.113122,0.135747 0,0.06787 -0.06787,0.113122 -0.113122,0.113122 l -0.135747,0 0,1.58371 0.904977,0 0,-1.809955 -0.76923,0 0,-0.02262 z m 0.995474,0 0,0.226244 1.583711,0 0,-0.226244 -1.583711,0 0,0 z m 1.809955,0 0,1.809955 0.904978,0 0,-1.583711 -0.113122,0 c -0.06787,0 -0.113122,-0.04525 -0.135747,-0.0905 -0.02262,-0.06787 0.02262,-0.113123 0.0905,-0.135747 l -0.746607,0 0,0 z m 1.266969,0 c 0.06787,0 0.113122,0.06787 0.113122,0.135747 0,0.06787 -0.06787,0.113122 -0.113122,0.113122 l -0.135747,0 0,1.58371 0.678733,0 0,-1.58371 -0.113122,0 c -0.06787,0 -0.113122,-0.04525 -0.135746,-0.0905 -0.02262,-0.06787 0.04525,-0.113122 0.0905,-0.135747 l -0.384615,0 0,-0.02262 z m 0.927602,0 c 0.06787,0 0.113122,0.06787 0.113122,0.135747 0,0.06787 -0.06787,0.113122 -0.113122,0.113122 l -0.113122,0 0,1.58371 0.678733,0 0,-1.58371 -0.113122,0 c -0.02262,0 -0.02262,0 -0.04525,0 -0.02262,-0.02262 -0.04525,-0.02262 -0.06787,-0.04525 0,0 0,-0.02262 0,-0.02262 0,0 0,0 0,0 0,0 0,-0.02262 0,-0.02262 0,0 0,0 0,0 0,0 0,0 0,-0.02262 l 0,0 c 0,0 0,0 0,-0.02262 0,0 0,0 0,0 0,-0.02262 0,-0.02262 0,-0.02262 0,0 0,0 0,-0.02262 0,0 0,0 0,-0.02262 0,0 0,-0.02262 0.02262,-0.02262 0.02262,-0.02262 0.02262,-0.02262 0.04525,-0.02262 l -0.40724,0 0,0 z m 0.882353,0 c 0,0.02262 0.02262,0.02262 0,0 0.02262,0 0.02262,0 0.02262,0 0.02262,0.02262 0.02262,0.02262 0.04525,0.04525 0,0 0,0 0,0 0,0 0.02262,0.02262 0.02262,0.02262 0,0 0,0.02262 0.02262,0.02262 0,0 0,0 0,0.02262 l 0,0 c 0,0 0,0 0,0.02262 l 0,0 c 0,0 0,0.02262 0,0.02262 0,0 0,0 -0.02262,0.02262 0,0 0,0 0,0.02262 0,0 0,0 0,0 0,0.02262 -0.02262,0.02262 -0.04525,0.04525 -0.02262,0.02262 -0.04525,0.02262 -0.06787,0.02262 l -0.113122,0 0,1.583711 0.678733,0 0,-1.583711 -0.113122,0 c -0.06787,0 -0.113122,-0.04525 -0.135747,-0.0905 0,-0.06787 0.04525,-0.113123 0.0905,-0.135747 l -0.384615,0 0,-0.04525 z m 0.927602,0 c 0.06787,0 0.113122,0.06787 0.113122,0.135747 0,0.06787 -0.06787,0.113122 -0.113122,0.113122 l -0.113122,0 0,1.58371 0.678733,0 0,-1.58371 -0.113122,0 c -0.06787,0 -0.113123,-0.04525 -0.135747,-0.0905 0,-0.06787 0.04525,-0.113122 0.0905,-0.135747 l -0.40724,0 0,-0.02262 z m 0.904976,0 c 0.06787,0 0.113123,0.06787 0.113123,0.135747 0,0.06787 -0.06787,0.113122 -0.113123,0.113122 l -0.113121,0 0,1.58371 0.475112,0 0,-1.809955 -0.361991,0 0,-0.02262 z m 0.542987,0 0,1.809955 0.429864,0 -0.316742,-1.809955 -0.113122,0 0,0 z m -7.262444,0.475113 0,0.226245 1.583711,0 0,-0.226245 -1.583711,0 0,0 z m 0,0.452489 0,0.226244 1.583711,0 0,-0.226244 -1.583711,0 0,0 z m 0,0.452489 0,0.226244 1.583711,0 0,-0.226243 -1.583711,0 0,0 z m 0,0.452488 0,0.226245 1.583711,0 0,-0.226245 -1.583711,0 0,0 z m -7.737556,0.226245 -0.06787,0.452488 7.579186,0 0,-0.452488 -7.511313,0 0,0 z m 9.547511,0 0,0.452488 7.352942,0 -0.06787,-0.452488 -7.28507,0 0,0 z m -1.809955,0.226244 0,0.226244 1.583711,0 0,-0.226243 -1.583711,0 0,0 z m -7.828054,0.452488 -0.339367,2.488688 0.429865,0 0,-0.791855 c 0,-0.06787 0.04525,-0.113122 0.113122,-0.113122 0.06787,0 0.135747,0.04525 0.135747,0.113122 l 0,0.791855 0.226244,0 0,-0.995475 c 0,-0.0905 0.02262,-0.226244 0.113122,-0.361991 0.0905,-0.135746 0.248869,-0.248869 0.452489,-0.226244 0.226244,0 0.384615,0.113122 0.452489,0.226244 0.0905,0.113122 0.113122,0.271493 0.113122,0.361991 l 0,0.995475 0.226244,0 0,-0.995475 c 0,-0.0905 0.02262,-0.226244 0.113122,-0.361991 0.0905,-0.135746 0.248869,-0.248869 0.475114,-0.226244 0.203619,0 0.361991,0.113122 0.452488,0.226244 0.0905,0.113122 0.113122,0.271493 0.113122,0.361991 l 0,0.995475 0.226245,0 0,-0.565611 c 0,-0.04525 0.02262,-0.0905 0.06787,-0.113122 0.06787,-0.02262 0.158372,0.04525 0.158372,0.113122 l 0,0.565611 4.072397,0 0,-2.488688 -7.60181,0 0,0 z m 7.828054,0 0,0.226245 1.583711,0 0,-0.226244 -1.583711,0 0,0 z m 1.809955,0 0,2.488688 3.868779,0 0,-0.565611 c 0,-0.04525 0.04525,-0.0905 0.0905,-0.113122 0.06787,-0.02262 0.135747,0.04525 0.135747,0.113122 l 0,0.565611 0.226244,0 0,-0.995475 c 0,-0.0905 0.02262,-0.248869 0.113122,-0.361991 0.0905,-0.135746 0.248869,-0.226244 0.452489,-0.226244 0.226243,0 0.384614,0.113122 0.475112,0.226244 0.0905,0.135747 0.113122,0.271493 0.113122,0.361991 l 0,0.995475 0.226245,0 0,-0.995475 c 0,-0.0905 0.02262,-0.248869 0.113122,-0.361991 0.0905,-0.135746 0.248869,-0.226244 0.452489,-0.226244 0.20362,0 0.384615,0.113122 0.452488,0.226244 0.0905,0.135747 0.113123,0.271493 0.113123,0.361991 l 0,0.995475 0.226244,0 0,-0.791855 c 0,-0.04525 0.02262,-0.0905 0.06787,-0.113122 0.06787,-0.02262 0.158371,0.04525 0.158371,0.113122 l 0,0.791855 0.452488,0 -0.339366,-2.488688 -7.398189,0 0,0 z m -1.809955,0.452489 0,0.226244 1.583711,0 0,-0.226243 -1.583711,0 0,0 z m 0,0.452489 0,0.226244 1.583711,0 0,-0.226243 -1.583711,0 0,0 z m -6.719457,0.226244 c -0.158371,0 -0.226244,0.06787 -0.271493,0.135747 -0.04525,0.06787 -0.06787,0.180995 -0.06787,0.226244 l 0,0.995475 0.678733,0 0,-0.995475 c 0,-0.06787 -0.02262,-0.158371 -0.06787,-0.248869 -0.04525,-0.04525 -0.113122,-0.113122 -0.271493,-0.113122 l 0,0 z m 1.380091,0 c -0.158371,0 -0.226244,0.06787 -0.271493,0.135747 -0.04525,0.06787 -0.06787,0.180995 -0.06787,0.226244 l 0,0.995475 0.678733,0 0,-0.995475 c 0,-0.06787 -0.02262,-0.158371 -0.06787,-0.248869 -0.04525,-0.04525 -0.113122,-0.113122 -0.271493,-0.113122 l 0,0 z m 12.0362,0 c -0.158371,0 -0.226244,0.06787 -0.271493,0.135747 -0.04525,0.06787 -0.06787,0.180995 -0.06787,0.226244 l 0,0.995475 0.678732,0 0,-0.995475 c 0,-0.04525 -0.02262,-0.158371 -0.06787,-0.226244 -0.04525,-0.06787 -0.135747,-0.135747 -0.271493,-0.135747 l 0,0 z m 1.38009,0 c -0.158371,0 -0.226245,0.06787 -0.271494,0.135747 -0.04525,0.06787 -0.06787,0.180995 -0.06787,0.226244 l 0,0.995475 0.678733,0 0,-0.995475 c 0,-0.04525 -0.02262,-0.158371 -0.06787,-0.226244 -0.04525,-0.06787 -0.135746,-0.135747 -0.271493,-0.135747 l 0,0 z m -8.076924,0.226245 0,0.226244 1.583711,0 0,-0.226243 -1.583711,0 0,0 z m 0,0.452488 0,0.226245 1.583711,0 0,-0.226244 -1.583711,0 0,0 z m 0,0.452489 0,0.226244 1.583711,0 0,-0.226243 -1.583711,0 0,0 z M 6,21.972849 l 0,0.678733 20,0 0,-0.67873 -20,0 0,0 z"/></g></svg>