<svg xmlns="http://www.w3.org/2000/svg" id="Layer_1" width="32" height="32" version="1" viewBox="0 0 32 32"><g id="g7763"><path id="path7" fill="#24c4bc" d="M 32,16 C 32,24.835821 24.835821,31.973466 16,31.973466 7.164179,31.973466 0,24.835821 0,16 0,7.190713 7.164179,0.026534 16,0.026534 24.835821,0.026534 32,7.190713 32,16 l 0,0 z"/><path id="path3351" fill="#249eb2" d="M 16.576172 31.916016 C 17.475387 31.883565 18.369165 31.824868 19.224609 31.650391 C 20.266121 31.437963 21.271426 31.12431 22.228516 30.720703 C 23.185605 30.317096 24.0941 29.823539 24.945312 29.25 C 25.796525 28.676461 26.588619 28.023003 27.3125 27.300781 C 28.036381 26.578559 28.692485 25.787158 29.267578 24.9375 C 29.842671 24.087842 30.337337 23.178502 30.742188 22.222656 C 30.906163 21.835512 30.987518 21.409928 31.121094 21.007812 L 24.416016 14.302734 L 18.896484 14.302734 L 18.556641 15.433594 L 18.806641 15.683594 L 18.511719 15.683594 L 17.583984 14.755859 L 17.154297 14.755859 L 13.058594 10.660156 L 12.787109 10.660156 L 12.787109 10.773438 C 12.787109 10.807372 12.775656 10.835672 12.755859 10.855469 L 12.560547 10.660156 L 12.333984 10.660156 L 12.333984 10.773438 C 12.333984 10.807372 12.324483 10.835672 12.304688 10.855469 L 12.109375 10.660156 L 11.882812 10.660156 L 11.882812 10.773438 C 11.882812 10.807372 11.87136 10.835672 11.851562 10.855469 L 11.65625 10.660156 L 11.429688 10.660156 L 11.429688 10.773438 C 11.429688 10.807372 11.418233 10.835672 11.398438 10.855469 L 11.203125 10.660156 L 10.976562 10.660156 L 10.976562 10.773438 C 10.976562 10.806666 10.964351 10.833786 10.945312 10.853516 L 10.751953 10.660156 L 10.525391 10.660156 L 10.525391 10.773438 C 10.525391 10.804786 10.508325 10.830142 10.488281 10.849609 L 10.298828 10.660156 L 10.072266 10.660156 L 10.072266 10.773438 C 10.072266 10.807372 10.060812 10.835672 10.041016 10.855469 L 9.8457031 10.660156 L 9.6191406 10.660156 L 9.6191406 10.773438 C 9.6191406 10.804768 9.6040102 10.830145 9.5839844 10.849609 L 9.3945312 10.660156 L 9.1679688 10.660156 L 9.1679688 10.773438 C 9.1679688 10.807372 9.1565152 10.835672 9.1367188 10.855469 L 8.9414062 10.660156 L 8.7148438 10.660156 L 8.7148438 10.773438 C 8.7148438 10.805082 8.6980723 10.830093 8.6777344 10.849609 L 8.4882812 10.660156 L 8.2617188 10.660156 L 8.2617188 10.773438 C 8.2617188 10.806666 8.249507 10.833786 8.2304688 10.853516 L 8.0371094 10.660156 L 7.8320312 10.660156 L 7.8320312 12.923828 L 8.0800781 13.171875 L 7.5839844 13.171875 L 7.5839844 15.433594 L 7.8320312 15.681641 L 7.8320312 15.908203 L 7.5839844 15.660156 L 7.4941406 15.660156 L 7.3574219 15.660156 L 7.3574219 17.923828 L 7.6289062 18.195312 L 7.1542969 18.195312 L 7.1308594 18.171875 L 7.1308594 18.195312 L 7.1308594 19.03125 L 7.2890625 19.189453 C 7.267044 19.212193 7.240131 19.228687 7.2226562 19.257812 C 7.1547862 19.348312 7.1308594 19.484861 7.1308594 19.552734 L 7.1308594 20.433594 L 7.3574219 20.660156 L 7.0625 20.660156 L 6.9511719 20.660156 L 6 20.660156 L 6 21.339844 L 16.576172 31.916016 z "/><path id="path9" fill="#fff" d="m 7.832579,10.660634 0,2.262444 0.226244,0 0,-0.882354 c 0,-0.113122 0.02262,-0.294117 0.135747,-0.429864 0.113122,-0.158371 0.294117,-0.294118 0.542986,-0.271493 0.248869,0 0.452489,0.135747 0.542987,0.271493 0.0905,0.158371 0.113122,0.316742 0.113122,0.429864 l 0,0.882354 0.678733,0 0,-0.882354 c 0,-0.113122 0.02262,-0.294117 0.135746,-0.429864 0.113123,-0.158371 0.294118,-0.294118 0.542987,-0.271493 0.271493,0 0.452489,0.135747 0.542986,0.271493 0.0905,0.135747 0.135747,0.316742 0.135747,0.429864 l 0,0.882354 0.678733,0 0,-0.882354 c 0,-0.113122 0.02262,-0.294117 0.135747,-0.429864 0.113122,-0.158371 0.294118,-0.294118 0.542986,-0.271493 0.271494,0 0.452489,0.135747 0.542987,0.271493 0.113122,0.158371 0.135746,0.316742 0.135746,0.429864 l 0,0.882354 0.950227,0 -1.357466,-2.262444 -0.271494,0 0,0.113122 c 0,0.06787 -0.04525,0.113122 -0.113122,0.113122 -0.06787,0 -0.113122,-0.06787 -0.113122,-0.113122 l 0,-0.113122 -0.226244,0 0,0.113122 c 0,0.06787 -0.04525,0.113122 -0.113123,0.113122 -0.06787,0 -0.113122,-0.06787 -0.113122,-0.113122 l 0,-0.113122 -0.226244,0 0,0.113122 c 0,0.06787 -0.04525,0.113122 -0.113122,0.113122 -0.06787,0 -0.113123,-0.06787 -0.113123,-0.113122 l 0,-0.113122 -0.226244,0 0,0.113122 c 0,0.06787 -0.04525,0.113122 -0.113122,0.113122 -0.06787,0 -0.113122,-0.06787 -0.113122,-0.113122 l 0,-0.113122 -0.226245,0 0,0.113122 c 0,0.06787 -0.04525,0.113122 -0.113122,0.113122 -0.06787,0 -0.113122,-0.06787 -0.113122,-0.113122 l 0,-0.113122 -0.226244,0 0,0.113122 c 0,0.06787 -0.06787,0.113122 -0.113123,0.113122 -0.04525,0 -0.113122,-0.06787 -0.113122,-0.113122 l 0,-0.113122 -0.226244,0 0,0.113122 c 0,0.06787 -0.04525,0.113122 -0.113122,0.113122 -0.06787,0 -0.113123,-0.06787 -0.113123,-0.113122 l 0,-0.113122 -0.226244,0 0,0.113122 c 0,0.06787 -0.06787,0.113122 -0.113122,0.113122 -0.06787,0 -0.113122,-0.06787 -0.113122,-0.113122 l 0,-0.113122 -0.226245,0 0,0.113122 c 0,0.06787 -0.04525,0.113122 -0.113122,0.113122 -0.06787,0 -0.113122,-0.06787 -0.113122,-0.113122 l 0,-0.113122 -0.226244,0 0,0.113122 c 0,0.06787 -0.06787,0.113122 -0.113123,0.113122 -0.06787,0 -0.113122,-0.06787 -0.113122,-0.113122 l 0,-0.113122 -0.226244,0 0,0.113122 c 0,0.06787 -0.04525,0.113122 -0.113122,0.113122 -0.06787,0 -0.113122,-0.06787 -0.113122,-0.113122 l 0,-0.113122 -0.20362,0 z m 0.904977,0.904977 c -0.20362,0 -0.294118,0.06787 -0.361991,0.180996 -0.06787,0.0905 -0.0905,0.226244 -0.0905,0.294117 l 0,0.882354 0.904978,0 0,-0.882354 c 0,-0.06787 -0.02262,-0.203619 -0.0905,-0.294117 -0.06787,-0.0905 -0.180995,-0.180996 -0.361991,-0.180996 l 0,0 z m 2.036199,0 c -0.20362,0 -0.294117,0.06787 -0.361991,0.180996 -0.06787,0.0905 -0.0905,0.226244 -0.0905,0.294117 l 0,0.882354 0.904977,0 0,-0.882354 c 0,-0.06787 -0.02262,-0.203619 -0.0905,-0.294117 -0.06787,-0.0905 -0.158371,-0.180996 -0.361991,-0.180996 l 0,0 z m 2.0362,0 c -0.20362,0 -0.294118,0.06787 -0.361991,0.180996 -0.06787,0.0905 -0.0905,0.226244 -0.0905,0.294117 l 0,0.882354 0.904978,0 0,-0.882354 c 0,-0.06787 -0.02262,-0.203619 -0.0905,-0.294117 -0.06787,-0.0905 -0.158371,-0.180996 -0.361991,-0.180996 l 0,0 z m -5.226245,1.606335 0,2.262443 0.226244,0 0,-0.882353 c 0,-0.113121 0.02262,-0.294117 0.135747,-0.429863 0.113122,-0.158371 0.294117,-0.294118 0.542986,-0.271494 0.271493,0 0.452489,0.135747 0.542987,0.271494 0.113122,0.158371 0.135746,0.316742 0.135746,0.429863 l 0,0.882353 0.226245,0 0,-2.262443 -1.809955,0 z m 2.058824,0 0,2.262443 0.226244,0 0,-0.882353 c 0,-0.113121 0.02262,-0.294117 0.135747,-0.429863 0.113122,-0.158371 0.294117,-0.271494 0.542986,-0.271494 0.248869,0 0.452489,0.113123 0.542987,0.271494 0.0905,0.158371 0.135746,0.316742 0.135746,0.429863 l 0,0.882353 0.226245,0 0,-2.262443 -1.357467,0 -0.452488,0 z m 2.036199,0 0,2.262443 0.226244,0 0,-0.882353 c 0,-0.113121 0.02262,-0.294117 0.135747,-0.429863 0.113122,-0.158371 0.294118,-0.271494 0.542986,-0.271494 0.271494,0 0.452489,0.113123 0.542987,0.271494 0.113122,0.158371 0.135747,0.316742 0.135747,0.429863 l 0,0.882353 0.226244,0 0,-2.262443 -1.809955,0 z m 2.058824,0 0,2.262443 0.226244,0 0,-0.882353 c 0,-0.113121 0.02262,-0.294117 0.135747,-0.429863 0.113122,-0.158371 0.294117,-0.271494 0.542985,-0.271494 0.180996,0 0.316742,0.06787 0.429865,0.158372 l -0.497738,-0.837105 -0.837103,0 z m -5.85973,0.226245 c 0,0 0,0 0,0 0.02262,0 0.02262,0 0.02262,0 0,0 0.02262,0 0.02262,0 l 0.904978,0 c 0.06787,0 0.113122,0.06787 0.113122,0.113122 0,0.06787 -0.04525,0.113122 -0.113122,0.113122 l -0.904978,0 c -0.06787,0.02262 -0.135746,-0.02262 -0.135746,-0.0905 -0.02262,-0.04525 0.02262,-0.113122 0.0905,-0.135746 l 0,0 z m 0.633485,0.678733 c -0.20362,0 -0.294118,0.06787 -0.361991,0.180995 -0.06787,0.0905 -0.0905,0.226245 -0.0905,0.294117 l 0,0.882353 0.904977,0 0,-0.882353 c 0,-0.06787 -0.02262,-0.203619 -0.0905,-0.294117 -0.06787,-0.113122 -0.158371,-0.180995 -0.361991,-0.180995 l 0,0 z m 2.036199,0 c -0.20362,0 -0.294118,0.06787 -0.361991,0.180995 -0.06787,0.0905 -0.0905,0.226245 -0.0905,0.294117 l 0,0.882353 0.904978,0 0,-0.882353 c 0,-0.06787 -0.02262,-0.203619 -0.0905,-0.294117 -0.06787,-0.113122 -0.158371,-0.180995 -0.361991,-0.180995 l 0,0 z m 2.036199,0 c -0.20362,0 -0.294117,0.06787 -0.361991,0.180995 -0.06787,0.0905 -0.0905,0.226245 -0.0905,0.294117 l 0,0.882353 0.904977,0 0,-0.882353 c 0,-0.06787 -0.02262,-0.203619 -0.0905,-0.294117 -0.06787,-0.113122 -0.158371,-0.180995 -0.361991,-0.180995 l 0,0 z m 2.058823,0 c -0.203619,0 -0.294116,0.06787 -0.36199,0.180995 -0.06787,0.0905 -0.113122,0.226245 -0.113122,0.294117 l 0,0.882353 0.904977,0 0,-0.882353 c 0,-0.06787 -0.02262,-0.203619 -0.0905,-0.294117 -0.04525,-0.113122 -0.135747,-0.180995 -0.339367,-0.180995 l 0,0 z m 4.253395,0.226244 -0.339367,1.131221 5.859728,0 0,-1.131221 -5.520361,0 z m -3.597286,0.0905 c 0.02262,0.06787 0.02262,0.113121 0.02262,0.15837 l 0,0.882353 0.61086,0 -0.633484,-1.040723 z m 3.959277,0.135746 c 0,0 0,0 0,0 0.02262,0 0.02262,0 0.02262,0 0,0 0.02262,0 0.02262,0 l 0.452488,0 c 0.06787,0 0.113123,0.04525 0.113123,0.113122 l 0,0.452489 c 0,0.06787 -0.06787,0.113122 -0.113123,0.113122 l -0.452488,0 c -0.06787,0 -0.113123,-0.04525 -0.113123,-0.113122 l 0,-0.452489 c -0.02262,-0.04525 0.02262,-0.113122 0.06787,-0.113122 l 0,0 z m 1.357466,0 c 0.02262,0 0.02262,0 0.02262,0 l 0.452489,0 c 0.06787,0 0.113122,0.04525 0.113122,0.113122 l 0,0.452489 c 0,0.06787 -0.04525,0.113122 -0.113122,0.113122 l -0.452488,0 c -0.06787,0 -0.113122,-0.04525 -0.113122,-0.113122 l 0,-0.452489 c 0.02262,-0.04525 0.04525,-0.0905 0.0905,-0.113122 l 0,0 z m 1.38009,0 c 0.02262,0 0.02262,0 0.04525,0 l 0.452489,0 c 0.06787,0 0.113122,0.04525 0.113122,0.113122 l 0,0.452489 c 0,0.06787 -0.04525,0.113122 -0.113122,0.113122 l -0.452488,0 c -0.06787,0 -0.113121,-0.04525 -0.113121,-0.113122 l 0,-0.452489 c -0.02262,-0.04525 0.02262,-0.0905 0.06787,-0.113122 l 0,0 z m 1.357466,0 c 0.02262,0 0.02262,0 0.02262,0 l 0.452489,0 c 0.06787,0 0.113122,0.04525 0.113122,0.113122 l 0,0.452489 c 0,0.06787 -0.06787,0.113122 -0.113122,0.113122 l -0.452489,0 c -0.06787,0 -0.113122,-0.04525 -0.113122,-0.113122 l 0,-0.452489 c 0,-0.04525 0.04525,-0.0905 0.0905,-0.113122 l 0,0 z m -3.936651,0.226244 0,0.226244 0.226244,0 0,-0.226244 -0.226244,0 z m -2.285069,0 0,0.678733 0.452489,0 0,-0.678733 -0.452489,0 z m 3.642535,0 0,0.226244 0.226244,0 0,-0.226244 -0.226244,0 z m 1.357465,0 0,0.226244 0.226245,0 0,-0.226244 -0.226245,0 z m 1.380091,0 0,0.226244 0.226244,0 0,-0.226244 -0.226244,0 z m -16.153847,0.904978 0,2.262443 0.226245,0 0,-2.262443 -0.0905,0 -0.135747,0 z m 0.475114,0 0,2.262443 0.226244,0 0,-0.882353 c 0,-0.113122 0.02262,-0.294117 0.135747,-0.429864 0.113122,-0.158371 0.294117,-0.294118 0.542986,-0.271493 0.248869,0 0.452489,0.135746 0.542987,0.271493 0.0905,0.158371 0.113122,0.316742 0.113122,0.429864 l 0,0.882353 0.226244,0 0,-2.262443 -0.452489,0 -1.334841,0 z m 2.036199,0 0,2.262443 0.226244,0 0,-0.882353 c 0,-0.113122 0.02262,-0.294117 0.135747,-0.429864 0.113122,-0.158371 0.294118,-0.271493 0.542986,-0.271493 0.271494,0 0.452489,0.113122 0.542987,0.271493 0.113122,0.158371 0.135747,0.316742 0.135747,0.429864 l 0,0.882353 0.226244,0 0,-2.262443 -1.809955,0 z m 2.036199,0 0,2.262443 0.226245,0 0,-0.882353 c 0,-0.113122 0.02262,-0.294117 0.135746,-0.429864 0.113122,-0.158371 0.294118,-0.271493 0.542987,-0.271493 0.271493,0 0.452489,0.113122 0.542986,0.271493 0.113122,0.158371 0.135747,0.316742 0.135747,0.429864 l 0,0.882353 0.226244,0 0,-2.262443 -1.809955,0 z m 2.058824,0 0,2.262443 0.226244,0 0,-0.882353 c 0,-0.113122 0.02262,-0.294117 0.135747,-0.429864 0.113122,-0.158371 0.294117,-0.271493 0.542986,-0.271493 0.248869,0 0.452488,0.113122 0.542986,0.271493 0.113122,0.158371 0.135747,0.316742 0.135747,0.429864 l 0,0.882353 0.226244,0 0,-2.262443 -1.809954,0 z m 2.036199,0 0,2.262443 0.226244,0 0,-0.882353 c 0,-0.0905 0.02262,-0.20362 0.06787,-0.339366 0.04525,-0.0905 0.113122,-0.180996 0.226244,-0.248869 l -0.475113,-0.791855 -0.04525,0 z m 0.316742,0 0.452488,0.76923 0,0.02262 0.02262,0.02262 0.859729,1.470588 0.837104,0 0,-0.882353 c 0,-0.113122 0.02262,-0.294118 0.135747,-0.429864 0.113122,-0.158371 0.294118,-0.271494 0.542986,-0.271494 0.271494,0 0.452489,0.113123 0.542987,0.271494 0.113122,0.158371 0.135747,0.316742 0.135747,0.429864 l 0,0.882353 0.678733,0 0,-0.882353 c 0,-0.113122 0.02262,-0.294118 0.135746,-0.429864 0.113122,-0.158371 0.294118,-0.271494 0.542987,-0.271494 0.248869,0 0.452488,0.113123 0.542986,0.271494 0.113122,0.158371 0.135747,0.316742 0.135747,0.429864 l 0,0.882353 0.678732,0 0,-0.882353 c 0,-0.113122 0.02262,-0.294118 0.135747,-0.429864 0.113122,-0.158371 0.294117,-0.271494 0.542986,-0.271494 0.248869,0 0.452489,0.113123 0.542987,0.271494 0.113122,0.158371 0.135746,0.316742 0.135746,0.429864 l 0,0.882353 0.678733,0 0,-2.262444 -0.135746,0 -8.144797,0 z m -5.950226,0.226244 c 0,0 0.02262,0 0,0 0.02262,0 0.02262,0 0.02262,0 0,0 0.02262,0 0.02262,0 l 0.904977,0 c 0.06787,0 0.113122,0.06787 0.113122,0.113122 0,0.06787 -0.04525,0.113122 -0.113122,0.113122 l -0.904977,0 c -0.06787,0.02262 -0.135747,-0.02262 -0.158371,-0.06787 0.02262,-0.06787 0.06787,-0.135747 0.113122,-0.158371 l 0,0 z m 6.809954,0.226244 c 0.02262,0 0.02262,0 0,0 0.02262,0 0.02262,0 0.02262,0 0.02262,0 0.02262,0 0.02262,0 l 0.904978,0 c 0.06787,0 0.113122,0.06787 0.113122,0.113123 0,0.04525 -0.04525,0.113122 -0.113122,0.113122 l -0.904978,0 c -0.06787,0.02262 -0.135746,-0.02262 -0.135746,-0.0905 0,-0.04525 0.04525,-0.113122 0.0905,-0.135747 l 0,0 z m -8.438914,0.452489 c -0.20362,0 -0.294118,0.06787 -0.361991,0.180996 -0.06787,0.0905 -0.113122,0.226244 -0.113122,0.294117 l 0,0.882353 0.904977,0 0,-0.882353 c 0,-0.06787 -0.02262,-0.20362 -0.0905,-0.294117 -0.04525,-0.0905 -0.135747,-0.180996 -0.339367,-0.180996 l 0,0 z m 2.036199,0 c -0.20362,0 -0.294117,0.06787 -0.361991,0.158371 -0.06787,0.113122 -0.0905,0.226245 -0.0905,0.316742 l 0,0.882353 0.904977,0 0,-0.882353 c 0,-0.06787 -0.02262,-0.20362 -0.0905,-0.316742 -0.06787,-0.0905 -0.158371,-0.158371 -0.361991,-0.158371 l 0,0 z m 2.0362,0 c -0.20362,0 -0.294118,0.06787 -0.361991,0.158371 -0.06787,0.113122 -0.0905,0.226245 -0.0905,0.316742 l 0,0.882353 0.904978,0 0,-0.882353 c 0,-0.06787 -0.02262,-0.20362 -0.0905,-0.316742 -0.06787,-0.0905 -0.158371,-0.158371 -0.361991,-0.158371 l 0,0 z m 2.058823,0 c -0.20362,0 -0.294118,0.06787 -0.361991,0.158371 -0.06787,0.113122 -0.113122,0.226245 -0.113122,0.316742 l 0,0.882353 0.904977,0 0,-0.882353 c 0,-0.06787 -0.02262,-0.20362 -0.0905,-0.316742 -0.04525,-0.0905 -0.135746,-0.158371 -0.339366,-0.158371 l 0,0 z m 4.321267,0 c -0.20362,0 -0.294117,0.06787 -0.361991,0.158371 -0.06787,0.113122 -0.0905,0.226245 -0.0905,0.316742 l 0,0.882353 0.904978,0 0,-0.882353 c 0,-0.06787 -0.02262,-0.20362 -0.0905,-0.316742 -0.06787,-0.0905 -0.180995,-0.158371 -0.361991,-0.158371 l 0,0 z m 2.058824,0 c -0.20362,0 -0.294118,0.06787 -0.361991,0.158371 -0.06787,0.113122 -0.0905,0.226245 -0.0905,0.316742 l 0,0.882353 0.904978,0 0,-0.882353 c 0,-0.06787 -0.02262,-0.20362 -0.0905,-0.316742 -0.0905,-0.0905 -0.180995,-0.158371 -0.361991,-0.158371 l 0,0 z m 2.036199,0 c -0.20362,0 -0.294118,0.06787 -0.361991,0.158371 -0.06787,0.113122 -0.0905,0.248869 -0.0905,0.316742 l 0,0.882353 0.904977,0 0,-0.882353 c 0,-0.06787 -0.02262,-0.20362 -0.0905,-0.316742 -0.06787,-0.0905 -0.180996,-0.158371 -0.361991,-0.158371 l 0,0 z m -6.651584,0.0905 c -0.04525,0.04525 -0.0905,0.0905 -0.113122,0.158371 -0.04525,0.0905 -0.06787,0.180995 -0.06787,0.226244 l 0,0.882353 0.927602,0 -0.746606,-1.266968 z m 8.235294,1.266968 0,0 0.0905,0 0,0 -0.0905,0 z m -17.737557,0.248869 0,0.859729 c 0.113122,-0.0905 0.271493,-0.180996 0.452489,-0.158371 0.271493,0 0.452489,0.135746 0.542986,0.271493 0.113122,0.158371 0.135747,0.316742 0.135747,0.429864 l 0,0.882353 0.226244,0 0,-2.262443 -0.452488,0 -0.904978,0 z m 1.606335,0 0,2.262443 0.226244,0 0,-0.882352 c 0,-0.113123 0.02262,-0.294118 0.135747,-0.429865 0.113122,-0.158371 0.294118,-0.294117 0.542987,-0.271493 0.248868,0 0.452488,0.135747 0.542986,0.271493 0.0905,0.158371 0.135747,0.316742 0.135747,0.429865 l 0,0.882352 0.226244,0 0,-2.262447 -1.131222,0 -0.678733,0 z m 2.036199,0 0,2.262443 0.226245,0 0,-0.882352 c 0,-0.113123 0.02262,-0.294118 0.135746,-0.429865 0.113123,-0.158371 0.294118,-0.294117 0.542987,-0.271493 0.271493,0 0.452489,0.135747 0.542986,0.271493 0.113123,0.158371 0.135747,0.316742 0.135747,0.429865 l 0,0.882352 0.226244,0 0,-2.262443 -1.809955,0 z m 2.0362,0 0,2.262443 0.226244,0 0,-0.882352 c 0,-0.113123 0.02262,-0.294118 0.135747,-0.429865 0.113122,-0.158371 0.294117,-0.294117 0.542986,-0.271493 0.248869,0 0.452489,0.135747 0.542987,0.271493 0.0905,0.158371 0.113122,0.316742 0.113122,0.429865 l 0,0.882352 0.226243,0 0,-2.262443 -1.787329,0 z m 2.058823,0 0,2.262443 0.226244,0 0,-0.882352 c 0,-0.113123 0.02262,-0.294118 0.135747,-0.429865 0.113122,-0.158371 0.294117,-0.294117 0.542986,-0.271493 0.248869,0 0.452489,0.135747 0.542987,0.271493 0.0905,0.135747 0.135746,0.316742 0.135746,0.429865 l 0,0.882352 0.226245,0 0,-2.262443 -1.809955,0 z m 2.036199,0 0,2.262443 0.226244,0 0,-0.882352 c 0,-0.113123 0.02262,-0.294118 0.135747,-0.429865 0.0905,-0.158371 0.294118,-0.294117 0.542987,-0.271493 0.04525,0 0.0905,0 0.135746,0.02262 l -0.40724,-0.701357 -0.633484,0 z m 0.882353,0 0.565611,0.950226 c 0,0 0,0.02262 0,0.02262 l 0.06787,0.0905 c 0,0 0,0.02262 0,0.02262 l 0.701357,1.199095 0.04525,0 0,-0.882352 c 0,-0.113123 0.02262,-0.294118 0.135746,-0.429865 0.113123,-0.158371 0.294118,-0.294117 0.542987,-0.271493 0.248869,0 0.452489,0.113122 0.542986,0.271493 0.113123,0.158371 0.135747,0.316742 0.135747,0.429865 l 0,0.882352 0.678733,0 0,-0.882352 c 0,-0.113123 0.02262,-0.294118 0.135747,-0.429865 0.113122,-0.158371 0.294117,-0.294117 0.542986,-0.271493 0.271493,0 0.452488,0.113122 0.542986,0.271493 0.113122,0.158371 0.135747,0.316742 0.135747,0.429865 l 0,0.882352 0.678733,0 0,-0.882352 c 0,-0.113123 0.02262,-0.294118 0.135746,-0.429865 0.113122,-0.158371 0.294118,-0.294117 0.542987,-0.271493 0.248869,0 0.452489,0.113122 0.542986,0.271493 0.0905,0.158371 0.135747,0.316742 0.135747,0.429865 l 0,0.882352 0.226244,0 0,-2.26244 -0.135746,0 -6.900453,0 z m -2.647059,0.20362 c 0,0 0,0 0,0 0.02262,0 0.02262,0 0.02262,0 0,0 0.02262,0 0.02262,0 0,0 0.02262,0 0.02262,0 0,0 0,0 0.02262,0 l 0.904978,0 c 0.06787,0 0.113122,0.04525 0.113122,0.113122 0,0.06787 -0.06787,0.113122 -0.113122,0.113122 l -0.904978,0 c -0.06787,0.02262 -0.135747,-0.02262 -0.158371,-0.06787 -0.02262,-0.04525 0,-0.135747 0.06787,-0.158371 l 0,0 z m -6.131222,0.02262 0,0 0.02262,0 c 0.02262,0 0.02262,0 0.04525,0 l 0.904977,0 c 0.06787,0 0.113123,0.04525 0.113123,0.113122 0,0.06787 -0.04525,0.113122 -0.113123,0.113122 l -0.904977,0 c -0.06787,0.02262 -0.135747,-0.02262 -0.158371,-0.06787 -0.02262,-0.0905 0.02262,-0.158371 0.0905,-0.158371 l 0,0 z m 0.633485,0.678733 c -0.20362,0 -0.294118,0.06787 -0.361991,0.180996 -0.06787,0.0905 -0.0905,0.226244 -0.0905,0.294117 l 0,0.882353 0.904977,0 0,-0.882353 c 0,-0.06787 -0.02262,-0.20362 -0.0905,-0.294117 C 9.93665,19.144796 9.823524,19.076923 9.642529,19.076923 l 0,0 z m 2.036199,0 c -0.20362,0 -0.294118,0.06787 -0.361991,0.180996 -0.06787,0.0905 -0.0905,0.226244 -0.0905,0.294117 l 0,0.882353 0.904978,0 0,-0.882353 c 0,-0.06787 -0.02262,-0.20362 -0.0905,-0.294117 -0.06787,-0.113123 -0.158371,-0.180996 -0.361991,-0.180996 l 0,0 z m 2.058824,0 c -0.20362,0 -0.294118,0.06787 -0.384616,0.180996 -0.06787,0.0905 -0.0905,0.226244 -0.0905,0.294117 l 0,0.882353 0.904977,0 0,-0.882353 c 0,-0.06787 -0.02262,-0.20362 -0.0905,-0.294117 -0.04525,-0.113123 -0.135746,-0.180996 -0.339366,-0.180996 l 0,0 z m 2.036198,0 c -0.20362,0 -0.294117,0.06787 -0.361991,0.180996 -0.06787,0.0905 -0.0905,0.226244 -0.0905,0.294117 l 0,0.882353 0.904978,0 0,-0.882353 c 0,-0.06787 -0.02262,-0.20362 -0.0905,-0.294117 -0.06787,-0.113123 -0.158371,-0.180996 -0.361991,-0.180996 l 0,0 z m 2.0362,0 c -0.20362,0 -0.294118,0.06787 -0.361991,0.180996 -0.06787,0.0905 -0.0905,0.226244 -0.0905,0.294117 l 0,0.882353 0.904977,0 0,-0.882353 c 0,-0.06787 -0.02262,-0.135746 -0.04525,-0.226244 l 0,0 -0.06787,-0.113122 C 18.104071,19.1448 17.99095,19.076923 17.809955,19.076923 l 0,0 z m 2.058823,0 c -0.20362,0 -0.294117,0.06787 -0.361991,0.180996 -0.06787,0.0905 -0.113122,0.226244 -0.113122,0.294117 l 0,0.882353 0.904978,0 0,-0.882353 c 0,-0.06787 -0.02262,-0.20362 -0.0905,-0.294117 -0.04525,-0.113123 -0.135747,-0.180996 -0.339367,-0.180996 l 0,0 z m 2.0362,0 c -0.20362,0 -0.294118,0.06787 -0.361991,0.180996 -0.06787,0.0905 -0.0905,0.226244 -0.0905,0.294117 l 0,0.882353 0.904977,0 0,-0.882353 c 0,-0.06787 -0.02262,-0.20362 -0.0905,-0.294117 -0.06787,-0.113123 -0.158371,-0.180996 -0.36199,-0.180996 l 0,0 z m 2.058823,0 c -0.20362,0 -0.294118,0.06787 -0.361991,0.180996 -0.06787,0.0905 -0.0905,0.226244 -0.0905,0.294117 l 0,0.882353 0.904977,0 0,-0.882353 c 0,-0.06787 -0.02262,-0.20362 -0.0905,-0.294117 -0.06787,-0.113123 -0.158371,-0.180996 -0.361991,-0.180996 l 0,0 z m -16.380091,0 c -0.20362,0 -0.294118,0.06787 -0.361991,0.180996 -0.06787,0.0905 -0.0905,0.226244 -0.0905,0.294117 l 0,0.882353 0.904978,0 0,-0.882353 c 0,-0.06787 -0.02262,-0.20362 -0.0905,-0.294117 -0.06787,-0.113123 -0.158371,-0.180996 -0.361991,-0.180996 l 0,0 z m 10.904978,0.723982 0,0.633484 0.384615,0 -0.384615,-0.633481 z M 6,20.660633 l 0,0.678733 20,0 0,-0.678733 -1.357466,0 -1.357466,0 -4.140272,0 c -0.02262,0.02262 -0.06787,0.02262 -0.113122,0 l -0.542986,0 -1.357467,0 -0.678733,0 -1.357466,0 -0.678732,0 -1.357466,0 -0.678734,0 -1.357466,0 -0.678733,0 -1.357466,0 -0.678733,0 0,0 -0.113122,0 -1.131222,0 -0.113122,0 0,0 -0.950226,0 z"/></g></svg>