<svg xmlns="http://www.w3.org/2000/svg" id="Layer_1" width="32" height="32" version="1" viewBox="0 0 32 32"><g id="g9888"><path id="path7" fill="#e64c65" d="M 32,16 C 32,24.835821 24.835821,31.973466 16,31.973466 7.164179,31.973466 0,24.835821 0,16 0,7.190713 7.164179,0.026534 16,0.026534 24.835821,0.026534 32,7.190713 32,16 l 0,0 z"/><path id="path3351" fill="#cd244a" d="M 15.824219 31.955078 C 15.88427 31.955739 15.939792 31.972656 16 31.972656 C 17.104478 31.972656 18.183098 31.862818 19.224609 31.650391 C 20.266121 31.437963 21.271426 31.12431 22.228516 30.720703 C 23.185605 30.317096 24.0941 29.823539 24.945312 29.25 C 25.796525 28.676461 26.588619 28.023003 27.3125 27.300781 C 28.036381 26.578559 28.692485 25.787158 29.267578 24.9375 C 29.842671 24.087842 30.337337 23.178502 30.742188 22.222656 C 31.062978 21.465275 31.28059 20.657799 31.482422 19.845703 L 23.960938 12.324219 C 23.958723 12.322004 23.955364 12.320558 23.953125 12.318359 C 23.891139 12.257512 23.822416 12.202374 23.738281 12.154297 C 23.583669 12.047258 23.424906 11.961031 23.261719 11.869141 L 22.652344 11.259766 C 22.629724 11.237146 22.594487 11.226564 22.560547 11.226562 C 22.515297 11.226562 22.470703 11.29459 22.470703 11.339844 L 22.470703 11.474609 C 22.402833 11.497229 22.357749 11.542639 22.3125 11.587891 C 22.198004 11.681569 22.061462 11.76457 21.921875 11.845703 L 20.005859 9.9296875 C 20.002748 9.9265756 19.997543 9.9303085 19.994141 9.9277344 C 19.970732 9.9095352 19.944074 9.899061 19.914062 9.9140625 C 19.891443 9.9140625 19.868323 9.9363544 19.845703 9.9589844 C 19.800453 10.026854 19.709639 10.09505 19.619141 10.185547 C 19.573891 10.253417 19.551927 10.343097 19.529297 10.433594 C 19.484047 10.456214 19.460938 10.501623 19.460938 10.546875 L 19.460938 10.615234 L 19.416016 10.638672 C 19.385014 10.669673 19.387688 10.712037 19.400391 10.751953 C 19.404175 10.764636 19.407556 10.768181 19.414062 10.779297 C 19.420891 10.791716 19.422467 10.807232 19.431641 10.816406 L 19.597656 10.982422 L 19.597656 11.294922 L 19.484375 11.294922 L 19.460938 11.294922 C 19.393068 11.294922 19.347656 11.36181 19.347656 11.429688 C 19.347656 11.458118 19.359793 11.48283 19.376953 11.5 L 19.388672 11.509766 L 19.646484 11.769531 C 19.607734 11.792462 19.581026 11.832915 19.597656 11.882812 C 19.608966 11.916742 19.624741 11.945054 19.644531 11.964844 L 19.820312 12.140625 L 19.824219 12.154297 L 19.824219 13.683594 L 18.988281 12.847656 C 18.985169 12.844544 18.979965 12.848277 18.976562 12.845703 C 18.953155 12.827504 18.926495 12.81703 18.896484 12.832031 C 18.873864 12.832031 18.828125 12.854323 18.828125 12.876953 C 18.737625 13.0127 18.579105 13.149896 18.443359 13.353516 C 18.436071 13.368097 18.424537 13.386532 18.414062 13.404297 L 17.857422 12.847656 C 17.85431 12.844544 17.849106 12.848277 17.845703 12.845703 C 17.822241 12.827269 17.795793 12.816951 17.765625 12.832031 C 17.743005 12.832031 17.719886 12.854323 17.697266 12.876953 C 17.606766 13.0127 17.448246 13.149896 17.3125 13.353516 C 17.303042 13.372435 17.289453 13.3964 17.275391 13.419922 L 16.703125 12.847656 C 16.700013 12.844544 16.694809 12.848277 16.691406 12.845703 C 16.667997 12.827504 16.64134 12.81703 16.611328 12.832031 C 16.588708 12.832031 16.542969 12.854323 16.542969 12.876953 C 16.452469 13.0127 16.29395 13.149896 16.158203 13.353516 C 16.143622 13.368097 16.139545 13.386532 16.128906 13.404297 L 15.572266 12.847656 C 15.569154 12.844544 15.56395 12.848277 15.560547 12.845703 C 15.537085 12.827269 15.510637 12.816951 15.480469 12.832031 C 15.457849 12.832031 15.412109 12.854323 15.412109 12.876953 C 15.397957 12.898181 15.368688 12.929684 15.351562 12.951172 L 12.294922 9.8945312 C 12.293113 9.892722 12.28914 9.894198 12.287109 9.8925781 C 12.269695 9.8777575 12.248554 9.8691406 12.222656 9.8691406 C 12.200036 9.8691406 12.176917 9.8914325 12.154297 9.9140625 C 12.109047 9.9819325 12.018232 10.050127 11.927734 10.140625 C 11.882484 10.208495 11.860521 10.298174 11.837891 10.388672 C 11.792641 10.411292 11.768724 10.4567 11.746094 10.501953 L 11.746094 10.570312 L 11.724609 10.591797 C 11.692988 10.623418 11.695406 10.668491 11.708984 10.708984 C 11.712576 10.720432 11.714881 10.724227 11.720703 10.734375 C 11.727579 10.746972 11.730951 10.7622 11.740234 10.771484 L 11.904297 10.935547 L 11.904297 11.248047 L 11.791016 11.248047 L 11.769531 11.248047 C 11.701661 11.248047 11.65625 11.316889 11.65625 11.384766 C 11.65625 11.413196 11.668387 11.437908 11.685547 11.455078 L 11.695312 11.462891 L 11.955078 11.724609 C 11.915802 11.747323 11.887552 11.787649 11.904297 11.837891 C 11.904297 11.868531 11.91816 11.894734 11.9375 11.914062 L 11.945312 11.919922 L 12.130859 12.107422 L 12.130859 12.109375 L 12.130859 13.894531 L 10.583984 12.347656 C 10.576742 12.340414 10.567988 12.335198 10.560547 12.328125 C 10.492638 12.263502 10.419532 12.204819 10.34375 12.154297 C 10.188145 12.04657 10.029418 11.959634 9.8652344 11.867188 L 9.2578125 11.259766 C 9.2351885 11.237146 9.2019048 11.226564 9.1679688 11.226562 C 9.1227187 11.226562 9.0761719 11.29459 9.0761719 11.339844 L 9.0761719 11.474609 C 9.0083019 11.497229 8.9632167 11.542639 8.9179688 11.587891 C 8.6690996 11.791511 8.3312264 11.949863 8.0371094 12.130859 C 7.9013624 12.221359 7.7643251 12.334957 7.6738281 12.470703 C 7.6398931 12.515953 7.6226406 12.571471 7.6113281 12.630859 C 7.6000156 12.690248 7.5952994 12.753986 7.5839844 12.810547 L 7.4707031 12.810547 C 7.4028331 12.810547 7.3574219 12.855955 7.3574219 12.923828 L 7.3574219 13.330078 L 7.1542969 13.533203 C 7.1228184 13.564682 7.1269424 13.608071 7.1425781 13.648438 C 7.1462357 13.658858 7.1484313 13.662442 7.1542969 13.671875 C 7.1604661 13.682054 7.1616439 13.694847 7.1699219 13.703125 L 7.5839844 14.117188 L 7.5839844 15.660156 L 7.7519531 15.828125 C 7.7253013 15.845673 7.6983469 15.8622 7.6738281 15.886719 C 7.6059581 15.954589 7.5839844 16.045408 7.5839844 16.113281 L 7.5839844 16.136719 L 7.5605469 16.158203 C 7.5619432 16.160996 7.559323 16.165014 7.5605469 16.167969 L 7.2734375 15.880859 L 7.2617188 15.869141 C 7.2425262 15.849948 7.2163804 15.83671 7.1914062 15.822266 C 7.1822818 15.816988 7.1759118 15.809162 7.1660156 15.804688 C 7.1660156 15.804688 7.1640625 15.804688 7.1640625 15.804688 C 7.12187 15.785875 7.0736843 15.773438 7.0175781 15.773438 C 6.9610171 15.773438 6.9165458 15.78489 6.8769531 15.804688 C 6.8373605 15.824483 6.8034677 15.852782 6.7695312 15.886719 C 6.7355963 15.920654 6.71336 15.960407 6.6992188 16 C 6.6850775 16.039593 6.6796875 16.079345 6.6796875 16.113281 L 6.65625 16.113281 C 6.67887 16.181151 6.67887 16.271971 6.65625 16.339844 L 6.6796875 16.363281 L 6.6796875 16.904297 L 6.90625 17.130859 L 6.6796875 17.130859 L 6.6796875 18.375 L 6.84375 18.539062 C 6.8151507 18.556983 6.7865424 18.576047 6.7695312 18.601562 C 6.7016612 18.669432 6.6796875 18.761064 6.6796875 18.851562 L 6.6796875 20.095703 L 6.9042969 20.320312 L 6.6796875 20.320312 L 6.6796875 21.453125 L 6.90625 21.679688 L 6.453125 21.679688 L 6 21.679688 L 6 22.130859 L 15.824219 31.955078 z "/><path id="path9" fill="#fff" d="m 12.221722,9.868793 c -0.02262,0 -0.04525,0.02262 -0.06787,0.04525 -0.04525,0.06787 -0.135747,0.135747 -0.226245,0.226245 -0.04525,0.06787 -0.06787,0.15837 -0.0905,0.248868 l 0,0 c -0.04525,0.02262 -0.06787,0.06787 -0.0905,0.113123 l 0,0.06787 -0.02262,0.02262 c -0.06787,0.06787 0,0.203621 0.06787,0.203621 l 0.113122,0 0,0.452487 -0.113122,0 -0.02262,0 c -0.06787,0 -0.113122,0.06787 -0.113122,0.135747 0,0.06787 0.06787,0.113122 0.113122,0.0905 l 0.158372,0 0.06787,0.226244 0,0 c -0.06787,0 -0.113122,0.06787 -0.0905,0.135747 0,0.06787 0.06787,0.113122 0.113123,0.113122 l 0.06787,0 0.04525,0.158371 0,4.049773 c 0.06787,-0.04525 0.135746,-0.0905 0.226244,-0.0905 l 0,-0.294118 0.226245,0 0,0.248869 c 0.0905,0.02262 0.158371,0.04525 0.226244,0.113122 l 0,-0.361991 0.904977,0 0,0.339367 c 0.04525,0.02262 0.0905,0.06787 0.113123,0.113122 0.02262,-0.02262 0.02262,-0.02262 0.02262,-0.04525 0.02262,-0.02262 0.06787,-0.06787 0.0905,-0.0905 l 0,-0.316742 0.904977,0 0,0.339367 c 0.06787,-0.04525 0.135747,-0.0905 0.226244,-0.0905 l 0,-0.248869 0.904978,0 0,0.248869 c 0.02262,0 0.06787,-0.02262 0.0905,-0.02262 0.04525,0 0.0905,0 0.135746,0.02262 l 0,-0.248869 0.904978,0 0,0.248869 c 0.0905,0.02262 0.158371,0.04525 0.226244,0.113122 l 0,-0.361991 0.904978,0 0,0.339367 c 0.02262,0.02262 0.02262,0.02262 0.04525,0.02262 0.02262,-0.06787 0.04525,-0.135747 0.0905,-0.180996 0.02262,-0.02262 0.06787,-0.06787 0.0905,-0.0905 l 0,-0.0905 0.339366,0 0.588236,0 0,0.113122 c 0.06787,-0.04525 0.135746,-0.06787 0.226244,-0.0905 l 0,-0.02262 0.0905,0 0.135746,0 0,0.02262 c 0.0905,0.02262 0.158371,0.06787 0.226245,0.113123 l 0,-3.846154 0.04525,-0.113122 0.06787,0 c 0.06787,0 0.113122,-0.06787 0.113122,-0.113122 0,-0.06787 -0.06787,-0.113122 -0.113122,-0.113122 l 0.06787,-0.226245 0.158372,0 c 0.06787,0 0.113122,-0.04525 0.113122,-0.113122 0,-0.06787 -0.04525,-0.113122 -0.113122,-0.113122 l -0.113123,0 0,-0.452489 0.113123,0 c 0.0905,0 0.158371,-0.135747 0.06787,-0.20362 l -0.04525,-0.02262 0,-0.04525 c 0,-0.02262 -0.02262,-0.06787 -0.04525,-0.0905 -0.02262,-0.113122 -0.06787,-0.20362 -0.135747,-0.271494 -0.0905,-0.0905 -0.180995,-0.158371 -0.226244,-0.226244 -0.02262,-0.04525 -0.06787,-0.06787 -0.113122,-0.04525 -0.02262,0 -0.04525,0.02262 -0.06787,0.04525 -0.04525,0.06787 -0.135746,0.135747 -0.226244,0.226244 -0.04525,0.06787 -0.06787,0.158372 -0.0905,0.248869 l 0,0 c -0.04525,0.02262 -0.06787,0.06787 -0.06787,0.113122 l 0,0.06787 -0.04525,0.02262 c -0.06787,0.06787 0,0.20362 0.06787,0.20362 l 0.113122,0 0,0.452489 -0.113122,0 -0.02262,0 c -0.06787,0 -0.113122,0.06787 -0.113122,0.135746 0,0.06787 0.06787,0.113123 0.113122,0.0905 l 0.158372,0 0.06787,0.226245 c 0,0 0,0 0,0 -0.06787,0 -0.113122,0.06787 -0.0905,0.135746 0.02262,0.06787 0.06787,0.113122 0.113123,0.113122 l 0.06787,0 0.04525,0.158371 0,1.809955 -0.226245,0 c 0,-0.248868 -0.0905,-0.452488 -0.20362,-0.610859 -0.135746,-0.20362 -0.294117,-0.339367 -0.384615,-0.475114 -0.02262,-0.04525 -0.06787,-0.06787 -0.113122,-0.04525 -0.02262,0 -0.06787,0.02262 -0.06787,0.04525 -0.0905,0.135747 -0.248869,0.271494 -0.384615,0.475114 -0.02262,0.04525 -0.06787,0.113122 -0.0905,0.158371 -0.02262,-0.04525 -0.06787,-0.113123 -0.0905,-0.158371 -0.135746,-0.20362 -0.294117,-0.339367 -0.384615,-0.475114 -0.02262,-0.04525 -0.06787,-0.06787 -0.113122,-0.04525 -0.02262,0 -0.04525,0.02262 -0.06787,0.04525 -0.0905,0.135747 -0.248869,0.271494 -0.384615,0.475114 -0.02262,0.04525 -0.06787,0.113122 -0.0905,0.158371 l -0.02262,0 c -0.02262,-0.04525 -0.06787,-0.113123 -0.0905,-0.158371 -0.135747,-0.20362 -0.294118,-0.339367 -0.384615,-0.475114 -0.02262,-0.04525 -0.06787,-0.06787 -0.113123,-0.04525 -0.02262,0 -0.06787,0.02262 -0.06787,0.04525 -0.0905,0.135747 -0.248869,0.271494 -0.384616,0.475114 -0.04525,0.04525 -0.06787,0.113122 -0.0905,0.158371 -0.02262,-0.04525 -0.06787,-0.113123 -0.0905,-0.158371 -0.135747,-0.20362 -0.294118,-0.339367 -0.384615,-0.475114 -0.02262,-0.04525 -0.06787,-0.06787 -0.113123,-0.04525 -0.02262,0 -0.06787,0.02262 -0.06787,0.04525 -0.0905,0.135747 -0.248869,0.271494 -0.384616,0.475114 -0.02262,0.04525 -0.06787,0.113122 -0.0905,0.158371 -0.02262,-0.04525 -0.06787,-0.113123 -0.0905,-0.158371 -0.135747,-0.20362 -0.294118,-0.339367 -0.384615,-0.475114 0.02262,-0.04525 -0.04525,-0.06787 -0.0905,-0.04525 -0.02262,0 -0.04525,0.02262 -0.06787,0.04525 -0.0905,0.135747 -0.248869,0.271494 -0.384616,0.475114 -0.02262,0.04525 -0.06787,0.113122 -0.0905,0.158371 -0.02262,-0.04525 -0.06787,-0.113123 -0.0905,-0.158371 -0.135747,-0.20362 -0.294118,-0.339367 -0.384616,-0.475114 0,-0.04525 -0.06787,-0.06787 -0.113122,-0.04525 -0.02262,0 -0.04525,0.02262 -0.06787,0.04525 -0.0905,0.135747 -0.248869,0.271494 -0.384616,0.475114 -0.113122,0.158371 -0.20362,0.361991 -0.20362,0.610859 l -0.226244,0 0,-1.923077 0.04525,-0.113122 0.06787,0 c 0.06787,0 0.113122,-0.06787 0.113122,-0.113122 0,-0.06787 -0.06787,-0.113122 -0.113122,-0.113122 l 0.06787,-0.226245 0.158371,0 c 0.06787,0 0.113122,-0.04525 0.113122,-0.113122 0,-0.06787 -0.06787,-0.113122 -0.113122,-0.113122 l -0.113122,0 0,-0.452489 0.113122,0 c 0.0905,0 0.158371,-0.135746 0.06787,-0.20362 l -0.04525,-0.02262 0,-0.04525 c 0,-0.02262 -0.02262,-0.06787 -0.04525,-0.0905 -0.02262,-0.113122 -0.06787,-0.20362 -0.135746,-0.271493 -0.0905,-0.0905 -0.180996,-0.158371 -0.226245,-0.226245 0,-0.04525 -0.04525,-0.06787 -0.0905,-0.06787 l 0,0 z m -0.0905,0.904977 0.135746,0 0.0905,0 0,0.452488 -0.226244,0 0,-0.452488 z m 7.737556,0 0.135747,0 0.0905,0 0,0.452488 -0.226245,0 0,-0.452488 z M 9.16742,11.226258 c -0.04525,0 -0.0905,0.06787 -0.0905,0.113124 l 0,0.135746 c -0.06787,0.02262 -0.113123,0.06787 -0.158371,0.113122 -0.248869,0.20362 -0.588236,0.361991 -0.882353,0.542987 -0.135747,0.0905 -0.271494,0.20362 -0.361991,0.339366 -0.06787,0.0905 -0.06787,0.226244 -0.0905,0.339366 l -0.113122,0 c -0.06787,0 -0.113123,0.04525 -0.113123,0.113123 l 0,0.40724 -0.20362,0.20362 c -0.06787,0.06787 0,0.20362 0.0905,0.20362 l 0.339367,0 0,1.923075 c 0.06787,-0.04525 0.135746,-0.06787 0.226244,-0.0905 l 0,-1.266968 0.678733,0 0,1.357465 c 0.06787,-0.04525 0.135747,-0.06787 0.226245,-0.0905 l 0,-1.266968 0.904977,0 0,1.266968 c 0.02262,0 0.06787,-0.02262 0.0905,-0.02262 0.04525,0 0.0905,0 0.135746,0.02262 l 0,-1.266968 0.678734,0 0,1.266968 c 0.02262,0 0.06787,-0.02262 0.113122,-0.02262 0.04525,0 0.0905,0 0.113122,0.02262 l 0,-1.832578 -0.226244,0 0,0.339366 -0.678734,0 0,-0.339366 -0.226244,0 0,0.339366 -0.904977,0 0,-0.339366 -0.226245,0 0,0.339366 -0.678733,0 0,-0.339366 1.312217,0 0.02262,0 1.968326,0 c 0.0905,0 0.135746,-0.135747 0.06787,-0.20362 l -0.180995,-0.203621 0,-0.384615 c 0,-0.06787 -0.06787,-0.113123 -0.113123,-0.113123 l -0.113122,0 c 0,-0.135745 -0.02262,-0.248868 -0.06787,-0.339366 -0.0905,-0.135746 -0.226245,-0.248868 -0.361991,-0.339367 -0.294118,-0.20362 -0.633485,-0.36199 -0.904978,-0.542985 -0.04525,-0.04525 -0.0905,-0.06787 -0.158371,-0.113122 l 0,-0.135747 c 0.02262,-0.0905 -0.04525,-0.135747 -0.113122,-0.135747 l 0,0 z m 13.393666,0 c -0.04525,0 -0.0905,0.06787 -0.0905,0.113124 l 0,0.135746 c -0.06787,0.02262 -0.113122,0.06787 -0.158371,0.113122 -0.248869,0.20362 -0.588235,0.361991 -0.882352,0.542987 -0.135747,0.0905 -0.271494,0.20362 -0.361991,0.339366 -0.06787,0.0905 -0.0905,0.226244 -0.0905,0.339366 l -0.113122,0 c -0.06787,0 -0.113123,0.04525 -0.113123,0.113123 l 0,0.40724 -0.20362,0.20362 c -0.06787,0.06787 0,0.20362 0.0905,0.20362 l 0.339367,0 0,1.832579 c 0.02262,0 0.06787,-0.02262 0.113122,-0.02262 0.04525,0 0.0905,0 0.135747,0.02262 l 0,-1.266968 0.678733,0 0,1.266968 c 0.02262,0 0.06787,-0.02262 0.0905,-0.02262 0.04525,0 0.0905,0 0.135746,0.02262 l 0,-1.266968 0.904978,0 0,1.266968 c 0.0905,0.02262 0.158371,0.06787 0.226244,0.113122 l 0,-1.38009 0.678733,0 0,1.266968 c 0.0905,0.02262 0.158371,0.06787 0.226245,0.113122 l 0,-1.945701 0.339366,0 c 0.0905,0 0.158371,-0.135747 0.0905,-0.20362 l -0.20362,-0.20362 0,-0.384615 c 0,-0.06787 -0.04525,-0.113123 -0.113122,-0.113123 l -0.113122,0 c 0,-0.135746 -0.02262,-0.248868 -0.06787,-0.339366 -0.0905,-0.135747 -0.20362,-0.248869 -0.361991,-0.339367 -0.294118,-0.20362 -0.633484,-0.361991 -0.904978,-0.542986 -0.04525,-0.04525 -0.0905,-0.06787 -0.158371,-0.113122 l 0,-0.135747 c 0.02262,-0.0905 -0.04525,-0.135747 -0.113122,-0.135747 l 0,0 z m -10.384615,0.226245 0.135746,0 -0.06787,0.226244 -0.06787,-0.226244 z m 7.737556,0 0.135747,0 -0.06787,0.226244 -0.06787,-0.226244 z M 9.16742,11.678747 c 0.02262,0 0.06787,0.02262 0.135747,0.0905 0.06787,0.04525 0.135747,0.113122 0.20362,0.158371 l -0.656109,0 c 0.06787,-0.04525 0.135747,-0.0905 0.20362,-0.158371 0.06787,-0.04525 0.135747,-0.0905 0.113122,-0.0905 l 0,0 z m 13.41629,0 c 0.02262,0 0.06787,0.02262 0.135747,0.0905 0.06787,0.04525 0.135746,0.113122 0.20362,0.158371 l -0.633485,0 c 0.06787,-0.04525 0.135747,-0.0905 0.20362,-0.158371 0.04525,-0.04525 0.0905,-0.0905 0.0905,-0.0905 l 0,0 z m -1.357465,2.058824 0.678733,0 0,0.339367 -0.678733,0 0,-0.339367 z m 0.904976,0 0.40724,0 0.02262,0 0.497738,0 0,0.339367 -0.904978,0 0,-0.339367 z m 1.131222,0 0.678733,0 0,0.339367 -0.678733,0 0,-0.339367 z m -10.407239,0 0.814479,0 c 0.02262,0.06787 0.02262,0.135747 0.02262,0.226244 l -0.859724,0 c 0,-0.0905 0,-0.158371 0.02262,-0.226244 l 0,0 z m 1.153846,0 0.814479,0 c 0.02262,0.06787 0.02262,0.135747 0.02262,0.226244 l -0.882352,0 c 0,-0.0905 0.02262,-0.158371 0.04525,-0.226244 l 0,0 z m 1.131221,0 0.81448,0 c 0.02262,0.06787 0.02262,0.135747 0.02262,0.226244 l -0.859729,0 c 0,-0.0905 0,-0.158371 0.02262,-0.226244 l 0,0 z m 1.131222,0 0.81448,0 c 0.02262,0.06787 0.02262,0.135747 0.02262,0.226244 l -0.88235,0 c 0.02262,-0.0905 0.02262,-0.158371 0.04525,-0.226244 l 0,0 z m 1.131222,0 0.814479,0 c 0.02262,0.06787 0.02262,0.135747 0.02262,0.226244 l -0.882345,0 c 0.02262,-0.0905 0.02262,-0.158371 0.04525,-0.226244 l 0,0 z m 1.131222,0 0.814479,0 c 0.02262,0.06787 0.02262,0.135747 0.02262,0.226244 l -0.859728,0 c 0,-0.0905 0,-0.158371 0.02262,-0.226244 l 0,0 z m -6.176471,0.452489 0.226244,0 0,1.357465 -0.226241,0 0,-1.357465 z m 7.285068,0 0.226244,0 0,1.357465 -0.226244,0 0,-1.357465 z m -6.357466,0.429863 c 0.158371,0 0.294118,0.06787 0.429864,0.20362 l 0,0.723982 -0.904977,0 0,-0.746606 c 0.158371,-0.135747 0.316742,-0.180996 0.475113,-0.180996 l 0,0 z m 1.131222,0 c 0.15837,0 0.294117,0.06787 0.429863,0.20362 l 0,0.723982 -0.904976,0 0,-0.746606 c 0.180995,-0.135747 0.339366,-0.180996 0.475113,-0.180996 l 0,0 z m 1.131221,0 c 0.158371,0 0.294118,0.06787 0.452489,0.20362 l 0,0.723982 -0.904978,0 0,-0.746606 c 0.158371,-0.135747 0.316742,-0.180996 0.452489,-0.180996 l 0,0 z m 1.153846,0 c 0.158371,0 0.294118,0.06787 0.429864,0.20362 l 0,0.723982 -0.904977,0 0,-0.746606 c 0.158371,-0.135747 0.316742,-0.180996 0.475113,-0.180996 l 0,0 z m 1.131222,0 c 0.158371,0 0.294118,0.06787 0.429864,0.20362 l 0,0.723982 -0.904974,0 0,-0.746606 c 0.158371,-0.135747 0.316742,-0.180996 0.475113,-0.180996 l 0,0 z m 1.131222,0 c 0.158371,0 0.294118,0.06787 0.452489,0.20362 l 0,0.723982 -0.904978,0 0,-0.746606 c 0.135747,-0.135747 0.294118,-0.180996 0.452489,-0.180996 l 0,0 z M 7.018099,15.773769 c -0.113122,0 -0.180995,0.04525 -0.248868,0.113123 -0.06787,0.06787 -0.0905,0.158371 -0.0905,0.226244 l -0.02262,0 c 0.02262,0.06787 0.02262,0.158371 0,0.226244 l 0.02262,0 0,0.565611 0.226244,0 c 0,0 0,0 0,0 l 0,-0.565611 c 0,-0.04525 0.04525,-0.113122 0.0905,-0.113122 0.06787,-0.02262 0.135747,0.04525 0.135747,0.113122 l 0,0.565611 c 0,0 0,0 0,0 l 0.226244,0 0,-0.565611 0,-0.02262 0,-0.02262 c 0,-0.04525 0,-0.0905 0,-0.158371 l 0,-0.02262 0,-0.02262 c 0,-0.135746 -0.113122,-0.316742 -0.339366,-0.316742 l 0,0 z m 0.904977,0 c -0.113122,0 -0.180995,0.04525 -0.248868,0.113123 -0.06787,0.06787 -0.0905,0.158371 -0.0905,0.226244 l 0,0.02262 -0.02262,0.02262 c 0.02262,0.04525 0.02262,0.113122 0,0.158371 l 0.02262,0 0,0.02262 0,0.565611 0.226244,0 c 0,0 0,0 0,0 l 0,-0.565611 c 0,-0.04525 0.04525,-0.113122 0.0905,-0.113122 0.06787,-0.02262 0.135747,0.04525 0.135747,0.113122 l 0,0.565611 c 0,0 0,0 0,0 l 0.226244,0 0,-0.565611 0,-0.02262 0,-0.02262 c 0,-0.04525 0,-0.0905 0,-0.158371 l 0,-0.02262 0,-0.02262 c 0,-0.135747 -0.113122,-0.316742 -0.339367,-0.316742 l 0,0 z m 0.904978,0 c -0.113122,0 -0.180996,0.04525 -0.248869,0.113123 -0.06787,0.06787 -0.0905,0.158371 -0.0905,0.226244 l 0,0.02262 -0.02262,0.02262 c 0.02262,0.04525 0.02262,0.0905 0,0.135747 l 0.02262,0.02262 0,0.02262 0,0.565611 0.226245,0 c 0,0 0,0 0,0 l 0,-0.565611 c 0,-0.04525 0.02262,-0.0905 0.0905,-0.113122 0.06787,-0.02262 0.158371,0.04525 0.135747,0.113122 l 0,0.565611 c 0,0 0,0 0,0 l 0.226244,0 0,-0.565611 0,-0.02262 0.02262,0 c -0.02262,-0.04525 -0.02262,-0.113122 0,-0.158371 l -0.02262,-0.02262 0,-0.02262 C 9.190041,15.954761 9.054299,15.773765 8.828055,15.773765 l 0,0 z m 0.904977,0 c -0.113122,0 -0.180995,0.04525 -0.248869,0.113123 -0.06787,0.06787 -0.0905,0.158371 -0.0905,0.226244 l 0,0.02262 0,0 c 0.02262,0.04525 0.02262,0.113122 0,0.158371 l 0,0 0,0.02262 0,0.588236 0.226244,0 c 0,0 0,0 0,0 l 0,-0.565611 c 0,-0.04525 0.04525,-0.0905 0.0905,-0.113123 0.06787,-0.02262 0.158371,0.04525 0.135746,0.113123 l 0,0.565611 c 0,0 0,0 0,0 l 0.226245,0 0,-0.565611 0,-0.02262 0,-0.02262 c -0.02262,-0.04525 -0.02262,-0.0905 0,-0.158372 l 0,-0.02262 0,-0.02262 c 0.02262,-0.135746 -0.0905,-0.316742 -0.339367,-0.316742 l 0,0 z m 0.904978,0 c -0.113122,0 -0.180996,0.04525 -0.248869,0.113123 -0.06787,0.06787 -0.0905,0.158371 -0.0905,0.226244 l 0,0.02262 0,0.02262 c 0.02262,0.04525 0.02262,0.113122 0,0.158371 l 0,0 0,0.02262 0,0.565611 0.113122,0 0.113123,0 c 0,0 0,0 0,0 l 0,-0.565611 c 0,-0.04525 0.04525,-0.113122 0.0905,-0.113122 0.06787,-0.02262 0.135747,0.04525 0.135747,0.113122 l 0,0.565611 c 0,0 0,0 0,0 l 0.226244,0 0,-0.565611 0.04525,0 c -0.02262,-0.06787 -0.04525,-0.158371 0,-0.226244 l -0.02262,0 c 0,-0.158371 -0.113122,-0.339367 -0.361991,-0.339367 l 0,0 z m 10.452489,0 c -0.113122,0 -0.180996,0.04525 -0.248869,0.113123 -0.04525,0.06787 -0.0905,0.158371 -0.0905,0.20362 l 0,0 c 0.02262,0.06787 0.02262,0.158371 0,0.226244 l 0.02262,0 0,0.588235 0.226245,0 0,-0.565611 c 0,-0.04525 0.04525,-0.113122 0.0905,-0.113122 0.06787,-0.02262 0.135746,0.04525 0.135746,0.113122 l 0,0.565611 0.113122,0 0.113123,0 0,-0.565611 0,-0.02262 0,-0.02262 c -0.02262,-0.04525 -0.02262,-0.0905 0,-0.158371 l 0,0 0,-0.02262 c 0,-0.158371 -0.113123,-0.339366 -0.361991,-0.339366 l 0,0 z m 0.927602,0 c -0.113122,0 -0.180996,0.04525 -0.248869,0.113123 -0.04525,0.06787 -0.0905,0.158371 -0.0905,0.20362 l 0,0.02262 0,0 c 0.02262,0.04525 0.02262,0.113122 0,0.158371 l 0,0 0,0.02262 0,0.61086 0.226245,0 0,-0.565611 c 0,-0.04525 0.04525,-0.113123 0.0905,-0.113123 0.06787,-0.02262 0.135746,0.04525 0.135746,0.113123 l 0,0.565611 0.226245,0 0,-0.565611 0,-0.02262 0,-0.02262 c -0.02262,-0.04525 -0.02262,-0.0905 0,-0.135747 l 0,0 0,-0.02262 c 0,-0.180996 -0.113123,-0.361991 -0.339366,-0.361991 l 0,0 z m 0.904977,0 c -0.113123,0 -0.180996,0.04525 -0.248869,0.113123 -0.06787,0.06787 -0.0905,0.158371 -0.0905,0.20362 l 0,0.02262 0,0 c 0.02262,0.04525 0,0.0905 0,0.158371 l 0.02262,0.02262 0,0.02262 0,0.588235 0.226244,0 0,-0.565611 c 0,-0.04525 0.02262,-0.0905 0.0905,-0.113122 0.06787,-0.02262 0.135747,0.04525 0.135747,0.113122 l 0,0.565611 0.226244,0 0,-0.565611 0,-0.02262 0,0 c -0.02262,-0.04525 -0.02262,-0.113122 0,-0.158371 l 0,-0.02262 0,-0.02262 c -0.02262,-0.158371 -0.135747,-0.339367 -0.361991,-0.339367 l 0,0 z m 0.904977,0 c -0.113122,0 -0.180995,0.04525 -0.248869,0.113123 -0.06787,0.06787 -0.0905,0.158371 -0.0905,0.20362 l 0,0.02262 0,0 c 0.02262,0.04525 0.02262,0.113122 0,0.158371 l 0,0 0,0.02262 0,0.61086 0.226245,0 0,-0.565611 c 0,-0.04525 0.02262,-0.0905 0.0905,-0.113123 0.06787,-0.02262 0.135746,0.04525 0.135746,0.113123 l 0,0.565611 0.226245,0 0,-0.565611 0,-0.02262 0,-0.02262 c -0.02262,-0.04525 0,-0.0905 0,-0.135747 l 0,0 0,-0.02262 c 0.02262,-0.180996 -0.113123,-0.361991 -0.339367,-0.361991 l 0,0 z m 0.904978,0 c -0.113123,0 -0.180996,0.04525 -0.248869,0.113123 -0.06787,0.06787 -0.0905,0.158371 -0.0905,0.20362 l 0,0.02262 0,0 c 0.02262,0.04525 0.02262,0.113122 0,0.158371 l 0,0 0,0.02262 0,0.61086 0.226244,0 0,-0.565611 c 0,-0.04525 0.04525,-0.113123 0.0905,-0.113123 0.06787,-0.02262 0.135747,0.04525 0.135747,0.113123 l 0,0.565611 0.226244,0 0,-0.565611 0.02262,0 c -0.02262,-0.06787 -0.04525,-0.158371 -0.02262,-0.226245 l -0.02262,0 c 0.04525,-0.158371 -0.0905,-0.339366 -0.316742,-0.339366 l 0,0 z m -5.904978,0.226245 c -0.113122,0 -0.180995,0.04525 -0.248869,0.113122 -0.06787,0.06787 -0.0905,0.158371 -0.0905,0.226244 l 0,0 c 0.02262,0.04525 0.02262,0.0905 0,0.135747 0,0.02262 0,0.06787 0,0.0905 l 0,0.02262 0,0.542986 0.226244,0 c 0,0 0,0 0,0 l 0,-0.565611 c 0,-0.06787 0.04525,-0.113122 0.0905,-0.113122 0.06787,-0.02262 0.135746,0.04525 0.135746,0.113122 l 0,0.565611 c 0,0 0,0 0,0 l 0.226245,0 0,-0.588235 0,-0.02262 0,-0.02262 c 0,-0.04525 0,-0.0905 0,-0.135747 l 0,-0.02262 0,-0.02262 c 0.02262,-0.135746 -0.113122,-0.316742 -0.339367,-0.316742 l 0,0 z m 0.904978,0 c -0.113122,0 -0.20362,0.04525 -0.248869,0.113122 -0.06787,0.06787 -0.06787,0.158371 -0.06787,0.226244 l 0,0.02262 -0.02262,0.02262 c 0.02262,0.04525 0.02262,0.0905 0,0.135747 l 0.02262,0.02262 0,0.02262 0,0.565611 0.226245,0 c 0,0 0,0 0,0 l 0,-0.565611 c 0,-0.04525 0.02262,-0.0905 0.0905,-0.113122 0.06787,-0.02262 0.135747,0.04525 0.135747,0.113122 l 0,0.565611 c 0,0 0,0 0,0 l 0.158371,0 c -0.06787,-0.02262 -0.113122,-0.06787 -0.0905,-0.135747 0.02262,-0.06787 0.06787,-0.113122 0.135747,-0.0905 0,0 0.02262,0 0.02262,0 l 0,-0.339367 0.02262,0 c -0.02262,-0.06787 -0.02262,-0.158371 0,-0.226244 l -0.04525,0 c 0,-0.158371 -0.0905,-0.339367 -0.339366,-0.339367 l 0,0 z m -7.262444,0.226244 c -0.113122,0 -0.180995,0.04525 -0.248869,0.113122 -0.04525,0.06787 -0.0905,0.158371 -0.0905,0.226245 l -0.02262,0 c 0.02262,0.06787 0.02262,0.158371 0,0.248869 l 0.02262,0 0,0.542986 0.226244,0 0,0 0,-0.542986 c 0,-0.06787 0.04525,-0.113123 0.113122,-0.113123 0.06787,0 0.113122,0.06787 0.113122,0.113123 l 0,0.542986 c 0,0 0,0 0,0 l 0.226245,0 0,-0.565611 0,-0.02262 0,0 c -0.02262,-0.04525 -0.02262,-0.113122 0,-0.158371 l 0,-0.02262 0,-0.02262 c 0,-0.158371 -0.113122,-0.339367 -0.339367,-0.339367 l 0,0 z m 0.904978,0 c -0.113122,0 -0.180996,0.04525 -0.248869,0.113122 -0.04525,0.06787 -0.0905,0.158371 -0.0905,0.226245 l 0,0.02262 -0.02262,0.02262 c 0.02262,0.04525 0,0.0905 0,0.135746 l 0.02262,0.02262 0,0.04525 0,0.542987 0.226245,0 0,0 0,-0.542987 c 0,-0.06787 0.04525,-0.113122 0.113122,-0.113122 0.06787,0 0.113122,0.06787 0.113122,0.113122 l 0,0.542987 0,0 0.226244,0 0,-0.565611 0,-0.04525 0,0 c -0.02262,-0.04525 -0.02262,-0.0905 0,-0.158371 l 0,-0.02262 0,-0.02262 c 0.02262,-0.135747 -0.113122,-0.316742 -0.339366,-0.316742 l 0,0 z m 0.904977,0 c -0.113122,0 -0.20362,0.04525 -0.248869,0.113122 -0.04525,0.06787 -0.06787,0.158371 -0.06787,0.226245 l 0,0.02262 -0.02262,0.02262 c 0.02262,0.04525 0,0.0905 0,0.135746 l 0.02262,0.02262 0,0.04525 0,0.542987 0.226244,0 0,0 0,-0.542987 c 0,-0.06787 0.04525,-0.113122 0.113122,-0.113122 0.06787,0 0.113123,0.06787 0.113123,0.113122 l 0,0.542987 0,0 0.226243,0 0,-0.565611 0,0 0,-0.04525 0,0 c -0.02262,-0.04525 -0.02262,-0.0905 0,-0.158371 l 0,-0.02262 0,-0.02262 0,0 c -0.02262,-0.135747 -0.135747,-0.316742 -0.36199,-0.316742 l 0,0 z m 0.904977,0 c -0.113122,0 -0.180996,0.04525 -0.248869,0.113122 -0.04525,0.06787 -0.0905,0.158371 -0.0905,0.226245 l 0,0 0,0.02262 c 0.02262,0.04525 0.02262,0.113122 0,0.158371 l 0,0 0,0.04525 0,0 0,0.565611 0.226245,0 0,0 0,-0.542986 c 0,-0.06787 0.04525,-0.113122 0.113122,-0.113122 0.06787,0 0.113122,0.06787 0.113122,0.113122 l 0,0.542986 0,0 0.226244,0 0,-0.565611 0,-0.04525 0,-0.02262 c -0.02262,-0.04525 -0.02262,-0.0905 0,-0.135747 l 0,-0.02262 0,-0.02262 c 0.02262,-0.135746 -0.0905,-0.316742 -0.339366,-0.316742 l 0,0 z m 0.904977,0 c -0.113122,0 -0.180995,0.04525 -0.248868,0.113122 -0.04525,0.06787 -0.0905,0.158371 -0.0905,0.226245 l 0,0.02262 -0.02262,0.02262 c 0.02262,0.04525 0.02262,0.0905 0,0.135746 l 0.02262,0.02262 0,0.04525 0,0.542987 0.226244,0 0,0 0,-0.542987 c 0,-0.06787 0.04525,-0.113122 0.113122,-0.113122 0.06787,0 0.113123,0.06787 0.113123,0.113122 l 0,0.542987 0,0 0.226244,0 0,-0.565611 0,-0.04525 0,0 c -0.02262,-0.04525 -0.02262,-0.0905 0,-0.158371 l 0,-0.02262 0,-0.02262 c 0.02262,-0.135747 -0.0905,-0.316742 -0.339367,-0.316742 l 0,0 z m 0.927602,0 c -0.113122,0 -0.180995,0.04525 -0.248869,0.113122 -0.06787,0.06787 -0.0905,0.158371 -0.0905,0.226245 l 0,0.02262 0,0 c 0.02262,0.04525 0.02262,0.113122 0,0.158371 l 0,0 0,0.04525 0,0.565611 0.226244,0 0,0 0,-0.542986 c 0,-0.06787 0.04525,-0.113122 0.113122,-0.113122 0.06787,0 0.113122,0.06787 0.113122,0.113122 l 0,0.542986 0,0 0.226245,0 0,-0.565611 0,-0.04525 0,0 c -0.02262,-0.04525 -0.02262,-0.0905 0,-0.158371 l 0,-0.02262 0,-0.02262 c 0,-0.135747 -0.113122,-0.316742 -0.339367,-0.316742 l 0,0 z m 0.904978,0 c -0.113122,0 -0.180996,0.04525 -0.248869,0.113122 -0.06787,0.06787 -0.0905,0.158371 -0.0905,0.226245 l 0,0.02262 0,0.02262 c 0.02262,0.04525 0.02262,0.0905 0,0.158371 l 0,0 0,0.04525 0,0.542987 0.226245,0 0,0 0,-0.542987 c 0,-0.06787 0.04525,-0.113122 0.113122,-0.113122 0.06787,0 0.113122,0.06787 0.113122,0.113122 l 0,0.542987 0,0 0.226244,0 0,-0.113122 0,-0.542987 c 0,-0.02262 0,-0.06787 0,-0.0905 l 0,-0.06787 c 0,-0.135747 -0.113122,-0.316742 -0.339366,-0.316742 l 0,0 z m -11.244344,0.904978 0,1.244344 c 0.0905,-0.06787 0.20362,-0.113122 0.339366,-0.113122 0.180995,0 0.339366,0.06787 0.429864,0.203619 0.0905,0.113123 0.135747,0.24887 0.135747,0.384616 l 0,1.357466 0,0.113123 -0.113122,0 -0.452489,0 -0.339366,0 0,1.131221 1.131221,0 0,-4.321267 -0.859725,0 -0.271493,0 z m 1.357466,0 0,4.321267 2.285068,0 0,-4.321267 -2.058824,0 -0.226244,0 z m 2.511312,0 0,4.321267 0.904978,0 0,-1.131221 -0.11312,0 -0.452488,0 -0.113123,0 0,-0.113123 0,-1.357466 c 0,-0.135746 0.04525,-0.271493 0.135747,-0.384616 0.0905,-0.113122 0.248869,-0.203619 0.429864,-0.203619 0.04525,0 0.0905,0.02262 0.113123,0.02262 l 0,-0.81448 0,-0.113122 0,-0.226245 -0.859729,0 -0.04525,0 z m 9.773756,0 0,0.113122 0,1.040724 c 0.02262,0 0.06787,-0.02262 0.113122,-0.02262 0.180996,0 0.339367,0.0905 0.429865,0.20362 C 20.954754,18.579204 21,18.714951 21,18.850698 l 0,1.357466 0,0.113122 -0.113122,0 -0.452489,0 -0.113122,0 0,1.131222 0.904978,0 0,-4.321269 -0.678734,0 -0.226244,0 z m 1.131222,0 0,4.321267 2.285067,0 0,-4.321267 -2.14932,0 -0.135747,0 z m 2.511312,0.02262 0,4.298643 1.131222,0 0,-1.131221 -0.339364,0 -0.452489,0 -0.113122,0 0,-0.113122 0,-1.357466 c 0,-0.135747 0.04525,-0.271494 0.135747,-0.384616 0.0905,-0.113122 0.248868,-0.20362 0.429864,-0.20362 0.135747,0 0.248869,0.04525 0.339367,0.113122 l 0,-1.244344 -1.131222,0 z m -5.475113,0.20362 0,0.113122 0,3.981901 1.58371,0 0,-2.963801 0,0 0,-1.131222 -1.312217,0 -0.271493,0 z m -6.809955,0.226244 0,0.882353 c 0,0 0,0.02262 0,0.02262 l 0,2.963802 6.58371,0 0,-3.868779 -6.58371,0 z m -2.488688,0.565611 c 0.565611,0 0.904977,0.384615 0.904977,0.701358 l 0,1.357466 0,0.113122 -0.113122,0 -0.81448,0 -0.769231,0 -0.113122,0 0,-0.113122 0,-1.357466 c 0,-0.158372 0.0905,-0.339367 0.248869,-0.452489 0.135747,-0.135747 0.361991,-0.248869 0.656109,-0.248869 l 0,0 z m 13.393665,0 c 0.294118,0 0.497738,0.0905 0.656109,0.226244 0.158371,0.135747 0.248868,0.294118 0.248868,0.45249 l 0,1.357466 0,0.113122 -0.113119,0 -0.769231,0 -0.814478,0 -0.113123,0 0,-0.113122 0,-1.357466 c 0,-0.294119 0.339367,-0.65611 0.904977,-0.678734 l 0,0 z M 9.190045,18.3982 c -0.226245,0 -0.40724,0.06787 -0.520362,0.158371 -0.113122,0.0905 -0.158371,0.226245 -0.158371,0.294118 l 0,1.244344 0.656108,0 0.701358,0 0,-1.244344 c 0,-0.135747 -0.226244,-0.452489 -0.678733,-0.452489 l 0,0 z m 13.393665,0 c -0.452489,0 -0.678732,0.316742 -0.678732,0.452489 l 0,1.244344 0.701356,0 0.656109,0 0,-1.244344 c 0,-0.06787 -0.06787,-0.20362 -0.158371,-0.294118 -0.113122,-0.0905 -0.294118,-0.180996 -0.520362,-0.158371 l 0,0 z M 7.018099,18.4887 c -0.113122,0 -0.203619,0.04525 -0.248868,0.113122 -0.06787,0.06787 -0.0905,0.158371 -0.0905,0.248869 l 0,1.244344 0.339366,0 0.339366,0 0,-1.244344 c 0,-0.06787 -0.02262,-0.180996 -0.0905,-0.248869 C 7.221713,18.533952 7.15384,18.4887 7.018094,18.4887 l 0,0 z m 4.321267,0 c -0.113122,0 -0.20362,0.04525 -0.248868,0.113122 -0.06787,0.06787 -0.0905,0.158371 -0.0905,0.248869 l 0,1.244344 0.339366,0 0.113123,0 0,-1.561087 c -0.02262,-0.02262 -0.04525,-0.04525 -0.113123,-0.04525 l 0,0 z m 1.583711,0 c 0.294118,0 0.497738,0.135746 0.633484,0.294118 0.135747,0.158371 0.180996,0.361991 0.180996,0.520362 l 0,1.334841 0,0.113122 -0.113119,0 -0.588236,0 -0.769231,0 -0.113122,0 0,-0.113122 0,-1.334841 c 0,-0.135747 0.04525,-0.339367 0.158371,-0.497738 0.113122,-0.158371 0.316742,-0.316742 0.61086,-0.316742 l 0,0 z m 2.058823,0 c 0.294118,0 0.497738,0.135746 0.61086,0.294118 0.113122,0.158371 0.180995,0.361991 0.180995,0.520362 l 0,1.334841 0,0.113122 -0.113122,0 -0.588235,0 -0.76923,0 -0.113123,0 0,-0.113122 0,-1.334841 c 0,-0.135747 0.04525,-0.339367 0.158372,-0.497738 C 14.461539,18.647071 14.687782,18.4887 14.9819,18.4887 l 0,0 z m 2.036199,0 c 0.294118,0 0.497738,0.135746 0.633484,0.294118 0.135747,0.158371 0.180996,0.361991 0.180996,0.520362 l 0,1.334841 0,0.113122 -0.113119,0 -0.588236,0 -0.791855,0 -0.113122,0 0,-0.113122 0,-1.334841 c 0,-0.135747 0.04525,-0.339367 0.158371,-0.497738 0.135747,-0.158371 0.339367,-0.316742 0.633484,-0.316742 l 0,0 z m 3.41629,0 c -0.06787,0 -0.0905,0.02262 -0.113122,0.04525 l 0,1.561087 0.113122,0 0.339367,0 0,-1.244344 c 0,-0.0905 -0.02262,-0.180996 -0.0905,-0.24887 -0.04525,-0.04525 -0.135747,-0.0905 -0.248869,-0.113122 l 0,0 z m 4.321267,0 c -0.113122,0 -0.20362,0.04525 -0.248869,0.113122 -0.06787,0.06787 -0.0905,0.158371 -0.0905,0.248869 l 0,1.244344 0.339367,0 0.339367,0 0,-1.244344 c 0,-0.0905 -0.02262,-0.180996 -0.0905,-0.248869 -0.04525,-0.04525 -0.135747,-0.0905 -0.248869,-0.113122 l 0,0 z m -11.832579,0.248869 c -0.226244,0 -0.339367,0.0905 -0.429864,0.226244 -0.0905,0.113122 -0.135747,0.294118 -0.135747,0.361991 l 0,1.244344 0.678733,0 0.475113,0 0,-1.244344 c 0,-0.113122 -0.02262,-0.248869 -0.113122,-0.384615 -0.113122,-0.135747 -0.248869,-0.20362 -0.475113,-0.20362 l 0,0 z m 2.058823,0 c -0.226244,0 -0.361991,0.0905 -0.452489,0.226244 -0.0905,0.113122 -0.113121,0.294118 -0.113121,0.361991 l 0,1.244344 0.656108,0 0.475113,0 0,-1.244344 c 0,-0.113122 -0.04525,-0.248869 -0.135747,-0.384615 -0.0905,-0.135747 -0.20362,-0.20362 -0.429864,-0.20362 l 0,0 z m 2.036199,0 c -0.226244,0 -0.339366,0.0905 -0.429864,0.226244 -0.0905,0.113122 -0.135747,0.294118 -0.135747,0.361991 l 0,1.244344 0.678733,0 0.452489,0 0,-1.244344 c 0,-0.113122 -0.04525,-0.248869 -0.113122,-0.384615 -0.0905,-0.135747 -0.226244,-0.20362 -0.452489,-0.20362 l 0,0 z M 6,21.678745 l 0,0.452489 20,0 0,-0.45249 -0.67873,0 -18.868778,0 -0.452489,0 z"/></g></svg>