<svg xmlns="http://www.w3.org/2000/svg" id="Layer_1" width="32" height="32" version="1" viewBox="0 0 32 32"><g id="g6213"><path id="path7" fill="#ffcc0f" d="M 32,16 C 32,24.835821 24.835821,31.973466 16,31.973466 7.164179,31.973466 0,24.835821 0,16 0,7.190713 7.164179,0.026534 16,0.026534 24.835821,0.026534 32,7.190713 32,16 l 0,0 z"/><path id="path3351" fill="#ffa720" d="M 15.359375 31.908203 C 15.576667 31.916925 15.780562 31.972656 16 31.972656 C 17.104478 31.972656 18.183098 31.862818 19.224609 31.650391 C 20.266121 31.437963 21.271426 31.12431 22.228516 30.720703 C 23.185605 30.317096 24.0941 29.823539 24.945312 29.25 C 25.796525 28.676461 26.588619 28.023003 27.3125 27.300781 C 28.036381 26.578559 28.692485 25.787158 29.267578 24.9375 C 29.572447 24.487078 29.790385 23.979713 30.048828 23.498047 L 16 9.4511719 L 14.755859 11.191406 L 14.982422 11.417969 L 14.597656 11.417969 L 7.2441406 21.623047 L 7.4921875 21.871094 L 6 21.871094 L 6 22.548828 L 15.359375 31.908203 z "/><path id="path9" fill="#fff" d="m 16,9.450229 -1.244344,1.742082 0.452488,0 c 0.06787,0 0.113122,0.06787 0.113122,0.113122 l 0,0.339366 0.113123,0 c 0.06787,0 0.113122,0.04525 0.113122,0.113123 l 0,0.113122 1.357466,0 0,-0.113122 c 0,-0.06787 0.04525,-0.113123 0.113122,-0.113123 l 0.113122,0 0,-0.113122 c 0,-0.06787 0.06787,-0.113122 0.113123,-0.113122 l 0.158371,0 L 16,9.450229 l 0,0 z m -1.402716,1.968326 c 0,0 0,0 0,0 l 0,0 -7.352941,10.20362 4.886879,0 0,-0.769231 c 0,-0.02263 0,-0.02263 0,-0.04525 l 0.429864,-1.040724 c 0,-0.02263 0,-0.02263 0.02262,-0.04525 l 0,-1.131221 -0.226244,-0.429865 c 0,-0.02262 -0.02262,-0.02262 0,-0.04525 l 0,-1.561086 c 0,-0.02262 0,-0.04525 0.02262,-0.06787 0.633484,-0.904977 0.950226,-1.968326 1.968326,-2.782805 0.02262,0 0.02262,-0.02262 0.04525,-0.02262 l 0,-0.316742 c 0,-0.04525 0.02262,-0.0905 0.06787,-0.113122 0.542986,-0.180996 1.085972,-0.271493 1.674207,-0.271493 0.588236,0 1.176471,0.0905 1.764706,0.271493 0.04525,0.02262 0.0905,0.06787 0.0905,0.113122 l 0,0.475113 c 0.904978,0.814479 1.22172,1.78733 1.83258,2.647059 0.02262,0.02262 0.02262,0.04525 0.02262,0.06787 l 0,1.561086 c 0,0.02262 0,0.02262 -0.02262,0.04525 l -0.20362,0.429864 0,1.131222 c 0,0.02262 0,0.02262 0,0.04525 l 0.429864,1.040724 c 0.02262,0.02262 0.02262,0.02262 0.02262,0.04525 l 0,0.769231 4.660633,0 -7.171932,-9.977381 -0.20362,0 0,0.113123 c 0,0.06787 -0.04525,0.113122 -0.113122,0.113122 l -0.113123,0 0,0.113122 c 0,0.06787 -0.04525,0.113122 -0.113122,0.113122 l -1.58371,0 c -0.06787,0 -0.113123,-0.04525 -0.113123,-0.113122 l 0,-0.113122 -0.113122,0 c -0.06787,0 -0.113122,-0.06787 -0.113122,-0.113122 l 0,-0.339367 -0.497738,0 c 0,0 0,0 0,0 l 0,0 z m 1.561087,1.809955 c -0.04525,0 -0.113123,0 -0.158371,0 l 0,0.226244 0.226244,0 0,-0.226244 c -0.02262,0 -0.04525,0 -0.06787,0 l 0,0 z m 0.294117,0 0,0.248869 c 0.384616,0.02262 0.859729,0.113122 1.334842,0.20362 l 0,-0.226245 c -0.452489,-0.113122 -0.904977,-0.20362 -1.334842,-0.226244 l 0,0 z m -0.678733,0.02262 c -0.384615,0.02262 -0.769231,0.0905 -1.131222,0.20362 l 0,0.180995 c 0.40724,-0.06787 0.791856,-0.135746 1.131222,-0.158371 l 0,-0.226244 0,0 z M 16,13.680998 l 0,0.271493 0.113122,0.135747 0.113122,-0.135747 0,-0.271493 0,0 -0.226244,0 0,0 z m -0.226245,0.02262 c -0.339366,0.02262 -0.769231,0.0905 -1.176471,0.180995 0,0 0,0 -0.02262,0 l -0.02262,0 c -0.02262,0 -0.04525,0 -0.06787,0 0,0 -0.02262,0 -0.02262,0 -0.02262,0.02262 -0.06787,0.04525 -0.0905,0.06787 l 0,0.610859 0.113122,0 c 0.06787,0 0.113122,0.06787 0.113122,0.113122 l 0,0.226244 c 0,0.06787 -0.04525,0.113123 -0.113122,0.113123 -0.06787,0 -0.113122,-0.06787 -0.113122,-0.113123 l 0,-0.113122 -0.226244,0 0,1.131222 0.158371,0 c 0.04525,0 0.113122,0.02262 0.113122,0.0905 l 0.384614,1.289593 0.588236,0 c 0.02262,0 0.06787,0.02262 0.0905,0.04525 l 0.180995,0.180996 0.384616,0 0.429864,0 0.135746,-0.180996 c 0.02262,-0.02262 0.06787,-0.04525 0.0905,-0.04525 l 0.656109,0 0.40724,-1.289593 c 0.02262,-0.04525 0.06787,-0.0905 0.113122,-0.0905 l 0.158371,0 0,-1.131222 -0.22625,0 0,0.113122 c 0,0.06787 -0.04525,0.113123 -0.113123,0.113123 -0.06787,0 -0.113122,-0.06787 -0.113122,-0.113123 l 0,-0.226244 c 0,-0.06787 0.04525,-0.113122 0.113122,-0.113122 l 0.113123,0 0,-0.113121 c 0,0 0,0 0,0 l 0,-0.497738 c -0.02262,-0.02262 -0.06787,-0.04525 -0.0905,-0.06787 -0.475113,-0.0905 -0.904978,-0.158371 -1.289593,-0.20362 l 0,0.316742 c 0,0.02262 0,0.04525 -0.02262,0.06787 l -0.226244,0.248869 c -0.04525,0.04525 -0.113123,0.04525 -0.158371,0 l -0.226245,-0.271493 c -0.02262,-0.02262 -0.02262,-0.04525 -0.02262,-0.06787 l 0,-0.271493 0,0 z m -1.606334,0.475113 c -0.06787,0.06787 -0.113122,0.113122 -0.158371,0.180995 l 0.158371,0 0,-0.180995 0,0 z m 3.868778,0 0,0.180995 0.158371,0 c -0.04525,-0.06787 -0.0905,-0.113122 -0.158371,-0.180995 l 0,0 z m -4.18552,0.407239 c -0.06787,0.06787 -0.113122,0.158371 -0.180996,0.226244 l 0.294118,0 0,-0.113122 c 0,-0.04525 0.02262,-0.0905 0.0905,-0.113122 0,0 0.02262,0 0.02262,0 l 0.113122,0 0,0 -0.339367,0 0,0 z m 1.334841,0 c 0,0 0.02262,0 0.02262,0 l 0.40724,0 c 0.04525,0 0.0905,0.02262 0.113122,0.06787 l 0.271497,0.452493 c 0.02262,0.04525 0,0.135747 -0.04525,0.158372 -0.04525,0.02262 -0.135747,0 -0.158371,-0.04525 l -0.226244,-0.40724 -0.271494,0 -0.20362,0.40724 c -0.02262,0.06787 -0.113122,0.0905 -0.158371,0.06787 -0.04525,-0.02262 -0.06787,-0.113123 -0.04525,-0.158372 l 0.248869,-0.452488 c 0,-0.06787 0.02262,-0.0905 0.04525,-0.0905 l 0,0 z m 1.380091,0 c 0,0 0,0 0,0 0.02262,0 0.02262,0 0.02262,0 l 0.407239,0 c 0.04525,0 0.0905,0.02262 0.113123,0.06787 l 0.248868,0.452488 c 0.04525,0.06787 0.02262,0.135747 -0.04525,0.158371 -0.06787,0.02262 -0.135747,0 -0.158371,-0.06787 l -0.226245,-0.40724 -0.271493,0 -0.226244,0.40724 c -0.02262,0.04525 -0.113122,0.06787 -0.158371,0.04525 -0.04525,-0.02262 -0.06787,-0.113122 -0.04525,-0.158371 l 0.248869,-0.452488 c 0.02262,-0.02262 0.06787,-0.04525 0.0905,-0.04525 l 0,0 z m 1.470588,0 0,0 0.113122,0 c 0.06787,0 0.113122,0.06787 0.113122,0.113122 l 0,0.113122 0.294118,0 c -0.06787,-0.06787 -0.113122,-0.158371 -0.180996,-0.226244 l -0.339366,0 0,0 z m -4.524887,0.452489 c -0.04525,0.06787 -0.0905,0.158371 -0.135746,0.226244 l 0.565611,0 0,-0.226244 -0.429865,0 0,0 z m 1.877828,0 c 0.02262,0 0.02262,0 0,0 0.02262,0 0.02262,0 0.04525,0 0.06787,0 0.113123,0.04525 0.113123,0.113122 0,0.06787 -0.06787,0.113122 -0.113123,0.113122 -0.06787,0 -0.113122,-0.04525 -0.135746,-0.0905 0,-0.06787 0.04525,-0.135746 0.0905,-0.135746 l 0,0 z m 1.38009,0 c 0,0 0,0 0,0 0.02262,0 0.02262,0 0.02262,0 0.06787,0 0.113123,0.04525 0.113123,0.113122 0,0.06787 -0.04525,0.113122 -0.113123,0.113122 -0.06787,0 -0.113122,-0.04525 -0.135746,-0.0905 0,-0.06787 0.04525,-0.135746 0.113122,-0.135746 l 0,0 z m 1.515838,0 0,0.226244 0.565611,0 c -0.04525,-0.06787 -0.0905,-0.158371 -0.135747,-0.226244 l -0.429864,0 0,0 z m -5.045249,0.452488 c -0.04525,0.06787 -0.0905,0.158372 -0.135747,0.226245 l 0.837105,0 0,-0.226245 -0.701358,0 0,0 z m 2.850678,0 c 0,0 0,0 0,0 0.06787,0 0.135747,0.04525 0.135747,0.113123 l 0,0.339366 0.113122,0.294118 c 0.02262,0.06787 -0.04525,0.158371 -0.113122,0.158371 l -0.339367,0 c -0.06787,0 -0.113122,-0.04525 -0.113122,-0.113122 0,-0.06787 0.06787,-0.113122 0.113122,-0.113122 l 0.180996,0 -0.06787,-0.158368 c 0,-0.02262 0,-0.02262 0,-0.04525 l 0,-0.361991 c 0,-0.04525 0.02262,-0.0905 0.0905,-0.113122 l 0,0 z m 2.194571,0 0,0.226245 0.814479,0 c -0.04525,-0.06787 -0.0905,-0.158371 -0.135746,-0.226245 l -0.678733,0 0,0 z m -5.294118,0.452489 c -0.04525,0.06787 -0.0905,0.158371 -0.135746,0.226245 l 1.17647,0 c -0.04525,-0.02262 -0.0905,-0.06787 -0.0905,-0.113123 l 0,-0.113122 -0.950227,0 0,0 z m 5.294118,0 0,0.113122 c 0,0.04525 -0.02262,0.113123 -0.0905,0.113123 l 1.176471,0 c -0.04525,-0.06787 -0.0905,-0.158371 -0.135747,-0.226245 l -0.950226,0 0,0 z m -5.565611,0.452489 c -0.04525,0.06787 -0.06787,0.113122 -0.113122,0.180995 l 0,0.04525 1.809955,0 -0.06787,-0.226244 0,0 -1.628959,0 0,0 z m 5.158371,0 -0.06787,0.226244 1.809955,0 0,-0.04525 c -0.04525,-0.06787 -0.06787,-0.113122 -0.113122,-0.180996 l -1.628959,0 0,0 z m -2.466064,0.226244 c 0,0 0,0 0,0 0.02262,0 0.02262,0 0.02262,0 l 1.131222,0 c 0.06787,0 0.113122,0.06787 0.113122,0.113123 0,0.04525 -0.06787,0.113122 -0.113122,0.113122 l -1.131222,0 c -0.06787,0 -0.113122,-0.04525 -0.135746,-0.113122 0,-0.04525 0.04525,-0.0905 0.113122,-0.113123 l 0,0 z m -2.828054,0.226245 0,0.226244 1.968326,0 -0.06787,-0.226244 -1.900453,0 0,0 z m 5.158371,0 -0.06787,0.226244 1.968326,0 0,-0.226244 -1.900453,0 0,0 z m -5.158371,0.452488 0,0.226245 2.149321,0 c -0.02262,-0.02262 -0.06787,-0.04525 -0.06787,-0.0905 l -0.04525,-0.158371 -2.036199,0 0,0.02262 z m 5.022625,0 -0.04525,0.158372 c 0,0.04525 -0.02262,0.06787 -0.06787,0.0905 l 2.149322,0 0,-0.226244 -2.036199,0 0,-0.02262 z m -2.511313,0.248869 0,0.520362 c 0,0.02262 0,0.04525 -0.02262,0.06787 l -0.475113,0.723982 c -0.02262,0.02262 -0.06787,0.04525 -0.0905,0.04525 l -0.656108,0 -1.063348,0.927602 -0.361991,0.882353 7.352941,0 -0.361994,-0.882349 -1.063349,-0.927602 -0.656109,0 c -0.02262,0 -0.06787,-0.02262 -0.0905,-0.04525 l -0.475114,-0.72398 c 0,-0.02262 -0.02262,-0.04525 -0.02262,-0.06787 l 0,-0.520362 -0.339366,0 -0.0905,0.180996 c -0.02262,0.02262 -0.06787,0.04525 -0.0905,0.04525 l -0.497741,0 -0.429864,0 c -0.02262,0 -0.06787,-0.02262 -0.06787,-0.04525 l -0.180997,-0.180997 -0.316742,0 0,0 z m -2.511312,0.226245 0,0.226244 2.262443,0 c 0,0 0,0 0,0 l 0,-0.226244 -2.262443,0 0,0 z m 4.773756,0 0,0.226244 2.285068,0 0,-0.226244 -2.285068,0 0,0 z m -4.705882,0.429864 0.113122,0.226244 1.832578,0 0.158372,-0.226244 -2.104072,0 0,0 z m 4.819004,0 0.158371,0.226244 1.832579,0 0.113123,-0.226244 -2.104073,0 0,0 z m -4.660633,0.475113 0,0.226245 0.701357,0 0.226245,-0.20362 c 0.02262,-0.02262 0.02262,-0.02262 0.04525,-0.02262 l -0.972851,0 0,0 z m 5.610859,0 c 0.02262,0 0.02262,0.02262 0.04525,0.02262 l 0.226244,0.20362 0.701356,0 0,-0.226244 -0.972851,0 0,0 z m -5.610859,0.452489 0,0.384615 0.429864,-0.384615 -0.429864,0 0,0 z m 6.153846,0 0.429864,0.384615 0,-0.384612 -0.429864,0 0,0 z m -6.606335,1.809955 0,0.226244 7.488688,0 0,-0.226242 -7.488688,0 0,0 z m 0,0.452488 0,0.226245 7.488688,0 0,-0.226243 -7.488688,0 0,0 z M 6,21.871038 l 0,0.678733 20,0 0,-0.678729 -20,0 0,0 z"/></g></svg>