<svg xmlns="http://www.w3.org/2000/svg" id="Layer_1" width="32" height="32" version="1" viewBox="0 0 32 32"><g id="g5763"><path id="path7" fill="#5dc560" d="M 32,16 C 32,24.835821 24.835821,31.973466 16,31.973466 7.164179,31.973466 0,24.835821 0,16 0,7.164179 7.164179,0.026534 16,0.026534 24.835821,0.026534 32,7.164179 32,16 l 0,0 z"/><path id="path3351" fill="#43ab27" d="M 13.181641 31.691406 C 14.099891 31.854698 15.034683 31.972656 16 31.972656 C 17.104478 31.972656 18.183098 31.862818 19.224609 31.650391 C 20.266121 31.437963 21.271426 31.12431 22.228516 30.720703 C 23.185605 30.317096 24.0941 29.823539 24.945312 29.25 C 25.796525 28.676461 26.588619 28.023003 27.3125 27.300781 C 28.036381 26.578559 28.692485 25.787158 29.267578 24.9375 C 29.842671 24.087842 30.337337 23.178502 30.742188 22.222656 C 30.746647 22.212128 30.747516 22.199992 30.751953 22.189453 L 16.080078 7.5175781 C 16.078092 7.5155921 16.074385 7.5174077 16.072266 7.515625 C 16.046416 7.4930204 16.012427 7.4841401 15.976562 7.4960938 C 15.931313 7.4960938 15.886719 7.564123 15.886719 7.609375 L 15.886719 8.1757812 L 15.863281 8.1757812 C 15.818031 8.1757812 15.773437 8.2418574 15.773438 8.2871094 L 15.773438 8.8535156 L 15.660156 8.8535156 L 15.638672 8.8535156 C 15.593422 8.8535156 15.546875 8.9215449 15.546875 8.9667969 L 15.546875 9.4199219 C 15.546875 9.4538569 15.558325 9.4821561 15.578125 9.5019531 L 15.720703 9.6445312 C 15.565268 12.055487 15.42667 14.592173 14.914062 17.021484 L 15.365234 17.472656 L 15.072266 17.472656 C 15.064651 17.495504 15.060855 17.522577 15.056641 17.548828 L 14.619141 17.111328 C 14.619141 17.129628 14.605018 17.147977 14.611328 17.154297 L 14.625 17.167969 C 14.626121 17.178311 14.625806 17.184393 14.642578 17.201172 L 15.044922 17.603516 C 15.040038 17.636756 15.036877 17.670626 15.027344 17.699219 L 15.253906 17.925781 L 14.958984 17.925781 C 14.936364 18.084152 14.890955 18.24316 14.845703 18.378906 L 15.09375 18.626953 L 14.777344 18.626953 C 14.732094 18.785324 14.687825 18.921707 14.642578 19.080078 L 14.869141 19.306641 L 14.574219 19.306641 C 14.528969 19.465012 14.461265 19.599442 14.416016 19.757812 L 14.642578 19.984375 L 14.347656 19.984375 C 14.279786 20.142746 14.235842 20.279129 14.167969 20.4375 L 14.416016 20.685547 L 14.416016 20.890625 L 14.189453 20.664062 L 14.076172 20.664062 C 14.008302 20.822433 13.940921 20.956863 13.873047 21.115234 L 14.099609 21.341797 L 13.962891 21.341797 L 13.962891 21.679688 L 13.738281 21.455078 C 13.647781 21.658697 13.533857 21.840489 13.443359 22.021484 L 13.669922 22.248047 L 13.488281 22.248047 L 13.488281 22.541016 L 13.261719 22.314453 C 13.193849 22.450199 13.104982 22.563472 13.037109 22.699219 L 13.263672 22.925781 L 13.058594 22.925781 L 13.058594 23.289062 L 12.832031 23.0625 C 12.696285 23.266119 12.561528 23.445958 12.425781 23.626953 L 12.628906 23.830078 L 6 23.830078 L 6 24.509766 L 13.181641 31.691406 z "/><path id="path9" fill="#fff" d="m 15.977372,7.496094 c -0.04525,0 -0.0905,0.06787 -0.0905,0.113122 l 0,0.565611 c 0,0 -0.02262,0 -0.02262,0 -0.04525,0 -0.0905,0.06787 -0.0905,0.113122 l 0,0.565611 -0.113123,0 -0.02262,0 c -0.04525,0 -0.0905,0.06787 -0.0905,0.113122 l 0,0.452489 c 0,0.06787 0.04525,0.113122 0.113122,0.113122 l 0.06787,0 c -0.158371,2.443439 -0.294117,5.022624 -0.814479,7.488688 l 0.565611,0 c 0.02262,-0.06787 0.02262,-0.158371 0.02262,-0.226244 l -0.29412,0 c 0.02262,-0.06787 0.02262,-0.158371 0.04525,-0.226245 l 0.294118,0 c 0,-0.06787 0.02262,-0.158371 0.02262,-0.248868 l -0.271494,0 c 0.02262,-0.06787 0.02262,-0.158371 0.04525,-0.226245 l 0.248869,0 c 0.02262,-0.06787 0.02262,-0.158371 0.02262,-0.226244 l -0.226233,0 c 0,-0.06787 0.02262,-0.158371 0.02262,-0.226245 l 0.226245,0 c 0,-0.06787 0.02262,-0.158371 0.02262,-0.248868 l -0.20362,0 c 0,-0.06787 0.02262,-0.158371 0.02262,-0.226245 l 0.20362,0 c 0,-0.06787 0,-0.158371 0.02262,-0.226244 l -0.180996,0 c 0.02262,-0.06787 0.02262,-0.158371 0.04525,-0.226244 l 0.158371,0 c 0,-0.06787 0.02262,-0.158372 0.02262,-0.226244 l -0.135747,0 c 0.02262,-0.06787 0.02262,-0.158371 0.02262,-0.226244 l 0.135747,0 c 0,-0.06787 0,-0.158371 0,-0.226245 l -0.113122,0 c 0,-0.06787 0.02262,-0.158371 0.02262,-0.226244 l 0.113122,0 c 0,-0.06787 0,-0.158371 0,-0.226244 l -0.0905,0 c 0,-0.06787 0.02262,-0.158372 0.02262,-0.226245 l 0.04525,0 c 0,-0.06787 0,-0.158371 0,-0.226244 l -0.04525,0 c 0.02262,-0.06787 0.02262,-0.158371 0.02262,-0.226245 l 0.02262,0 c 0,-0.135746 0,-0.271493 0,-0.407239 0,0 0,-0.02262 0,-0.02262 0.0905,-0.995476 0.158371,-2.44344 0.20362,-3.438915 0.04525,1.108597 0.135747,2.60181 0.226245,3.642534 0,0.06787 0,0.158372 0,0.226245 l 0.02262,0 c 0,0.06787 0.02262,0.158371 0.02262,0.226244 l -0.02262,0 c 0,0.06787 0,0.158371 0,0.226245 l 0.04525,0 c 0,0.06787 0.02262,0.158371 0.02262,0.226244 l -0.06787,0 c 0,0.06787 0,0.158371 0,0.226244 l 0.0905,0 c 0.02262,0.06787 0.02262,0.158371 0.02262,0.226245 l -0.0905,0 c 0,0.06787 0,0.158371 0,0.226244 l 0.113122,0 c 0.02262,0.06787 0.02262,0.158371 0.02262,0.226244 l -0.135747,0 c 0,0.06787 0,0.158371 0.02262,0.226244 l 0.180996,0 c 0,0.06787 0.02262,0.158371 0.02262,0.226244 l -0.158371,0 c 0,0.06787 0,0.158371 0.02262,0.226245 l 0.180995,0 c 0.02262,0.06787 0.02262,0.158371 0.02262,0.226244 l -0.180995,0 c 0,0.06787 0.02262,0.158371 0.02262,0.248869 l 0.20362,0 c 0.02262,0.06787 0.02262,0.158371 0.02262,0.226244 l -0.20362,0 c 0,0.06787 0.02262,0.158371 0.02262,0.226245 l 0.226244,0 c 0.02262,0.06787 0.02262,0.158371 0.04525,0.226244 l -0.248801,0 c 0,0.0905 0.02262,0.158371 0.02262,0.248869 l 0.248869,0 c 0.02262,0.06787 0.02262,0.158371 0.04525,0.226244 l -0.271494,0 c 0,0.06787 0,0.158371 0.02262,0.226245 l 0.542986,0 c -0.497738,-2.488689 -0.656109,-5.067874 -0.81448,-7.488688 l 0.06787,0 c 0.06787,0 0.113122,-0.04525 0.113122,-0.113123 l 0,-0.452488 c 0,-0.06787 -0.04525,-0.113122 -0.113122,-0.113122 l -0.09049,0 0,-0.565611 c 0,-0.06787 -0.06787,-0.113123 -0.113122,-0.113123 l 0,-0.565611 c 0,-0.0905 -0.06787,-0.135746 -0.135747,-0.113122 l 0,0 z m 0.02263,5.384616 c -0.04525,1.380091 -0.113123,2.782805 -0.294118,4.140271 l 0.588235,0 C 16.113124,15.663515 16.04525,14.260801 16.000002,12.88071 l 0,0 z m -1.380091,4.230769 c 0,0.02262 -0.02262,0.04525 0,0.04525 0,0.02262 0,0.02262 0.02262,0.04525 0,-0.02262 0,-0.02262 0,-0.04525 0,-0.02262 -0.02262,-0.02262 -0.02262,-0.04525 l 0,0 z M 15.0724,17.47347 c -0.02262,0.06787 -0.02262,0.158371 -0.04525,0.226244 l 0.361991,0 c 0.02262,-0.06787 0.02262,-0.158371 0.04525,-0.226244 l -0.361991,0 z m 0.565611,0 c 0,0.06787 -0.02262,0.158371 -0.02262,0.226244 l 0.76923,0 c -0.02262,-0.06787 -0.02262,-0.158371 -0.02262,-0.226244 l -0.723982,0 z m 0.950226,0 c 0.02262,0.06787 0.02262,0.158371 0.02262,0.226244 l 0.339367,0 c -0.02262,-0.06787 -0.02262,-0.158371 -0.04525,-0.226244 l -0.316742,0 z m 0.429864,0.452489 c -0.02262,0 -0.02262,0 -0.04525,0 l -0.316742,0 c 0.02262,0.158371 0.04525,0.294117 0.06787,0.452488 l 0,0 0.40724,0 c -0.02262,-0.135746 -0.06787,-0.294117 -0.113122,-0.452488 l 0,0 z m -2.058824,0 c -0.02262,0.158371 -0.06787,0.316742 -0.113122,0.452488 l 0.429865,0 c 0.02262,-0.158371 0.04525,-0.294117 0.06787,-0.452488 l -0.384615,0 z m 0.61086,0 c -0.0905,0.633484 -0.226244,1.221719 -0.384615,1.809954 l 1.58371,0 c -0.158371,-0.588235 -0.271493,-1.199095 -0.384615,-1.809954 l -0.81448,0 z m -0.791855,0.701357 c -0.04525,0.158371 -0.0905,0.294118 -0.135747,0.452489 l 0.475114,0 c 0.02262,-0.158371 0.06787,-0.294118 0.0905,-0.452489 l -0.429864,0 z m 2.013575,0 c 0.02262,0.158371 0.06787,0.294118 0.0905,0.452489 l 0.452488,0 c -0.04525,-0.158371 -0.0905,-0.294118 -0.135746,-0.452489 l -0.40724,0 z m -2.217195,0.678733 c -0.04525,0.158371 -0.113121,0.294118 -0.15837,0.452489 l 0.542985,0 c 0.02262,-0.158371 0.06787,-0.294118 0.113123,-0.452489 l -0.497738,0 z m 2.352942,0 c 0.02262,0.158371 0.06787,0.294118 0.113122,0.452489 l 0.520362,0 c -0.04525,-0.158371 -0.113122,-0.294118 -0.158371,-0.452489 l -0.475113,0 z m -2.579185,0.678733 c -0.06787,0.158371 -0.113123,0.294118 -0.180996,0.452489 l 0.610859,0 c 0.04525,-0.158371 0.0905,-0.294118 0.135747,-0.452489 l -0.56561,0 z m 0.791854,0 c -0.04525,0.158371 -0.0905,0.294118 -0.135747,0.452489 l 1.968326,0 c -0.04525,-0.158371 -0.0905,-0.294118 -0.135746,-0.452489 l -1.696833,0 z m 1.945702,0 c 0.04525,0.158371 0.0905,0.294118 0.135746,0.452489 l 0.588236,0 C 17.742087,20.2789 17.696834,20.143153 17.628961,19.984782 l -0.542986,0 z m -3.00905,0.678733 c -0.06787,0.158371 -0.135746,0.294118 -0.20362,0.452489 l 0.316742,0 0,-0.452489 -0.113122,0 z m 0.339367,0 0,0.452489 0.15837,0 c 0.04525,-0.158371 0.0905,-0.294118 0.158371,-0.452489 l -0.316741,0 z m 0.520361,0 c -0.02262,0.06787 -0.04525,0.158371 -0.06787,0.226245 l 0.226245,0 0,-0.226245 -0.158371,0 z m 0.384615,0 0,0.226245 0.226245,0 0,-0.226245 -0.22625,0 z m 0.452489,0 0,0.226245 0.452489,0 0,-0.226245 -0.452489,0 z m 0.678733,0 0,0.226245 0.226245,0 0,-0.226245 -0.226245,0 z m 0.475114,0 0,0.226245 0.203619,0 c -0.02262,-0.06787 -0.04525,-0.158371 -0.06787,-0.226245 l -0.135747,0 z m 0.36199,0 c 0.02262,0.0905 0.04525,0.180996 0.0905,0.271493 0.02262,0 0.02262,0.02262 0.02262,0.04525 0,0 0,0.02262 0,0.02262 0,0 0,0 0,0 0.02262,0.04525 0.02262,0.06787 0.04525,0.113123 l 0.135746,0 0,-0.452489 -0.294117,0 z m 0.520363,0 0,0.452489 0.294117,0 c -0.06787,-0.158371 -0.135746,-0.294118 -0.20362,-0.452489 l -0.0905,0 z m -2.941177,0.452489 0.316742,0.384615 c 0.0905,-0.04525 0.180995,-0.06787 0.271493,-0.0905 l -0.20362,-0.294117 -0.384615,0 z m 0.656108,0 0.158371,0.248869 c 0.06787,-0.02262 0.135747,-0.02262 0.20362,-0.02262 l 0,-0.226244 -0.361996,0 z m 0.588236,0 0,0.226244 c 0.06787,0 0.113122,0.02262 0.180995,0.02262 l 0.158371,-0.248869 -0.339366,0 z m 0.61086,0 -0.20362,0.294118 c 0.0905,0.02262 0.180995,0.04525 0.271493,0.0905 l 0.316742,-0.384616 -0.384615,0 z m 0.542986,0.180995 -0.248869,0.294118 c 0.180996,0.0905 0.339367,0.20362 0.497738,0.339367 -0.0905,-0.20362 -0.180996,-0.429865 -0.248869,-0.633485 l 0,0 z m -2.533937,0 c -0.06787,0.20362 -0.158371,0.40724 -0.226244,0.61086 0.135746,-0.135747 0.294117,-0.248869 0.475113,-0.339366 l -0.248869,-0.271494 z m -0.76923,0.04525 0,0.678733 0.226244,0 0,-0.678733 -0.226244,0 z m 0.452489,0 0,0.180996 c 0.02262,-0.06787 0.04525,-0.113122 0.06787,-0.180996 l -0.06787,0 z m 3.099547,0 c 0.02262,0.04525 0.02262,0.0905 0.04525,0.135747 l 0,-0.135747 -0.04525,0 z m 0.294118,0 0,0.678733 0.226244,0 0,-0.678733 -0.226244,0 z m -4.072398,0.113123 c -0.0905,0.203619 -0.20362,0.384615 -0.294118,0.56561 l 0.294118,0 0,-0.56561 z m 4.524886,0.06787 0,0.497737 0.248869,0 c -0.06787,-0.158371 -0.158371,-0.339366 -0.248869,-0.497737 l 0,0 z m -2.262443,0.04525 c -1.266969,0 -2.013574,1.040723 -2.036199,2.036199 l 4.072398,0 c 0,-0.995476 -0.81448,-2.036199 -2.036199,-2.036199 l 0,0 z m -2.511312,0.678733 0,0.452488 0.226244,0 0,-0.452488 -0.226244,0 z m 0.475113,0 0,0.294117 c 0.04525,-0.0905 0.0905,-0.20362 0.135747,-0.294117 l -0.135747,0 z m 3.936651,0 c 0.04525,0.0905 0.0905,0.203619 0.135747,0.294117 l 0,-0.294117 -0.135747,0 z m 0.361991,0 0,0.452488 0.226245,0 0,-0.452488 -0.226245,0 z m -4.999999,0.06787 c -0.06787,0.135746 -0.158372,0.248868 -0.226245,0.384615 l 0.226245,0 0,-0.384615 z m 5.475112,0.06787 0,0.316742 0.180996,0 c -0.06787,-0.0905 -0.135747,-0.20362 -0.180996,-0.316742 l 0,0 z m -5.678732,0.542986 0,0.678733 0.226244,0 0,-0.678733 -0.226244,0 z m 0.429864,0 0,0.40724 c 0.0905,-0.135747 0.180995,-0.271493 0.248869,-0.40724 l -0.248869,0 z m 4.773755,0 c 0.06787,0.135747 0.158371,0.271493 0.248869,0.40724 l 0,-0.40724 -0.248869,0 z m 0.475113,0 0,0.678733 0.226245,0 0,-0.678733 -0.22625,0 z m -5.904977,0.135747 c -0.135746,0.203619 -0.271493,0.384615 -0.40724,0.56561 l 0.40724,0 0,-0.56561 z m 6.357466,0.06787 0,0.475113 0.339367,0 C 19.416292,23.44632 19.280545,23.287949 19.190047,23.129578 l 0,0 z m -5.452488,0.248868 c -0.04525,0.06787 -0.113122,0.158371 -0.158371,0.226245 l 0.158371,0 c 0,-0.06787 0,-0.135747 0,-0.226245 l 0,0 z m 4.524886,0 c 0,0.06787 0.02262,0.158371 0.02262,0.226245 l 0.135747,0 c -0.06787,-0.06787 -0.113122,-0.135747 -0.158371,-0.226245 l 0,0 z m -12.262443,0.452489 0,0.678733 20,0 0,-0.678733 -7.330317,0 c -0.02262,0.02262 -0.06787,0.02262 -0.0905,0 l -5.15837,0 c -0.02262,0.02262 -0.06787,0.02262 -0.0905,0 l -7.330317,0 z"/></g></svg>