<svg xmlns="http://www.w3.org/2000/svg" id="Layer_1" width="32" height="32" version="1" viewBox="0 0 32 32"><g id="g5586"><path id="path7" fill="#239fdb" fill-rule="evenodd" d="M 32,16 C 32,24.835821 24.835821,31.973466 16,31.973466 7.164179,31.973466 0,24.835821 0,16 0,7.164179 7.164179,0.026534 16,0.026534 24.835821,0.026534 32,7.164179 32,16 l 0,0 z" clip-rule="evenodd"/><path id="path3894" fill="#2385cd" d="M 13.285156 31.701172 C 14.171607 31.852937 15.070119 31.972656 16 31.972656 C 17.104478 31.972656 18.183098 31.862818 19.224609 31.650391 C 20.266121 31.437963 21.271426 31.12431 22.228516 30.720703 C 23.185605 30.317096 24.0941 29.823539 24.945312 29.25 C 25.796525 28.676461 26.588619 28.023003 27.3125 27.300781 C 28.036381 26.578559 28.692485 25.787158 29.267578 24.9375 C 29.550483 24.51953 29.749162 24.046536 29.992188 23.601562 L 14.007812 7.6171875 C 14.007003 7.616378 14.004769 7.6160183 14.003906 7.6152344 C 13.981282 7.5954376 13.941735 7.5839844 13.896484 7.5839844 C 13.851234 7.6066044 13.804687 7.6520126 13.804688 7.6972656 L 13.804688 9.7324219 L 13.783203 9.7109375 L 13.759766 9.7109375 L 13.738281 9.7109375 L 13.691406 9.7109375 L 13.669922 9.7109375 L 13.646484 9.7109375 C 13.623864 9.7109375 13.625 9.7324219 13.625 9.7324219 L 13.625 9.7558594 L 13.625 9.7773438 L 13.625 9.8007812 L 13.625 9.8242188 L 13.625 9.8457031 L 13.625 9.8554688 L 13.828125 10.058594 L 13.828125 13.511719 L 13.488281 13.511719 L 13.466797 13.511719 C 13.398927 13.511719 13.353516 13.579748 13.353516 13.625 C 13.353516 13.65564 13.367379 13.681832 13.386719 13.701172 L 13.392578 13.707031 L 13.648438 13.962891 L 13.466797 13.962891 C 13.398927 13.962891 13.353516 14.03092 13.353516 14.076172 C 13.353516 14.099884 13.367076 14.129229 13.388672 14.152344 C 13.389785 14.153544 13.389463 14.155088 13.390625 14.15625 L 13.804688 14.570312 L 13.804688 23.488281 L 14.054688 23.738281 L 6 23.738281 L 6 24.416016 L 13.285156 31.701172 z "/><path id="path9" fill="#fff" d="m 13.895928,7.583712 c -0.04525,0.02262 -0.0905,0.06787 -0.0905,0.113123 l 0,2.036199 c 0,0 -0.02262,-0.02262 -0.02262,-0.02262 0,0 0,0 0,0 l 0,0 -0.02262,0 c 0,0 0,0 -0.02262,0 -0.02262,0 -0.02262,0 -0.04525,0 l 0,0 c -0.02262,0 -0.02262,0 -0.02262,0 0,0 0,0 0,0 0,0 0,0 0,0 l 0,0 c 0,0 0,0 -0.02262,0 -0.02262,0 -0.02262,0.02262 -0.02262,0.02262 0,0 0,0 0,0.02262 l 0,0 0,0 c 0,0 0,0.02262 0,0.02262 0,0 0,0 0,0 0,0 0,0.02262 0,0.02262 0,0 0,0 0,0 0,0 0,0 0,0.02262 l 0,0 c 0,0 0,0 0,0.02262 0,0.02262 0,0 0,0 0,0 0,0 0,0 0,0 0,0 0,0 0,0 0,0 0.02262,0 0,0 0,0 0,0.02262 0,0 0,0 0,0 0,0 0,0 0,0 0,0 0,0 0,0 0,0 0,0 0.02262,0.02262 0.06787,0.04525 0.113123,0.113122 0.158371,0.158371 l 0,3.461539 -0.339366,0 -0.02262,0 c -0.06787,0 -0.113122,0.06787 -0.113122,0.113122 0,0.06787 0.06787,0.113122 0.113122,0.113122 l 0.339366,0 0,0.226245 -0.339366,0 c -0.06787,0 -0.113122,0.06787 -0.113122,0.113122 0,0.04525 0.04525,0.113122 0.113122,0.113122 l 0.339366,0 0,9.298643 0.135747,0 0.0905,0 0.158371,0 0,-9.298619 -0.135747,0 0,-0.226244 0.135747,0 0,-0.226245 -0.135747,0 0,-0.226244 0.135747,0 0,-2.963801 c -0.04525,-0.04525 -0.0905,-0.0905 -0.135747,-0.135747 l 0,-0.0905 c 0,0 0,0 0,0 l 0,-0.02262 1.018099,1.040724 c 2.737557,3.529412 3.393666,7.737557 2.579186,12.171946 l 0,0 c 0,0 0,0 0,0.02262 l 0,0 0.0905,0 0.294117,0 c 0.723982,-4.954751 -0.158371,-8.9819 -2.579186,-11.832579 -0.135746,-0.20362 -0.294117,-0.384615 -0.452488,-0.588235 2.850679,2.873304 3.891403,7.126697 3.122172,12.420814 0,0 0,0 0,0.02263 l 0.226244,0 c 0.542987,-3.823529 0.158371,-7.126697 -1.17647,-9.773755 l 0.588235,0 0.113122,0 0,-0.113123 0,-0.610859 0.565611,0 c 0.06787,0 0.113122,-0.04525 0.113122,-0.113123 0,-0.06787 -0.06787,-0.113122 -0.113122,-0.113122 l -1.357466,0 -0.02262,0 c -0.06787,0 -0.113122,0.06787 -0.0905,0.113122 0,0.06787 0.06787,0.113123 0.113122,0.113123 l 0.565611,0 0,0.452488 -0.61086,0 C 16.294143,12.108595 15.298668,10.9095 14.009076,9.914025 l 0,-2.217195 c 0.04525,-0.06787 -0.02262,-0.113122 -0.113122,-0.113122 0,0 0,0 0,0 l 0,0 z m 0.520362,5.927603 0,0.0905 c 0,0 0,0.02262 0,0.02262 l 0,0.339366 2.081447,0 c -0.06787,-0.158371 -0.158371,-0.294117 -0.226244,-0.452488 l -1.855203,0 z m 0,0.678733 0,0.452488 2.375565,0 c -0.06787,-0.15837 -0.135747,-0.316741 -0.20362,-0.452488 l -2.171945,0 z m 0,0.701357 0,0.452489 2.624434,0 c -0.04525,-0.158372 -0.113122,-0.294118 -0.158371,-0.452489 l -2.466063,0 z m 0,0.656108 0,0.452489 2.850678,0 c -0.04525,-0.158371 -0.0905,-0.294117 -0.135747,-0.452489 l -2.714931,0 z m 0,0.701358 0,0.452489 3.009049,0 c -0.02262,-0.158371 -0.06787,-0.316742 -0.113122,-0.452489 l -2.895927,0 z m 0,0.678733 0,0.452489 3.144796,0 c -0.02262,-0.158371 -0.04525,-0.294118 -0.0905,-0.452489 l -3.054298,0 z m 0,0.678733 0,0.452489 3.235293,0 c -0.02262,-0.158371 -0.04525,-0.294118 -0.06787,-0.452489 l -3.16742,0 z m 0,0.678733 0,0.452489 3.303167,0 c 0,-0.158371 -0.02262,-0.316742 -0.04525,-0.452489 l -3.257918,0 z m 0,0.678734 0,0.452488 3.348416,0 c 0,-0.158371 -0.02262,-0.294117 -0.02262,-0.452488 l -3.325792,0 z m 0,0.678733 0,0.452488 3.37104,0 c 0,-0.158371 0,-0.316742 0,-0.452488 l -3.37104,0 z m 0,0.678733 0,0.452488 3.348416,0 c 0,-0.158371 0.02262,-0.316742 0.02262,-0.452488 l -3.37104,0 z m 0,0.701357 0,0.452489 3.303167,0 c 0.02262,-0.158371 0.02262,-0.294118 0.04525,-0.452489 l -3.348415,0 z m 0,0.656109 0,0.452488 3.235293,0 c 0.02262,-0.158371 0.04525,-0.294117 0.04525,-0.452488 l -3.280542,0 z m 0,0.678733 0,0.452488 3.144796,0 c 0.02262,-0.158371 0.04525,-0.294117 0.06787,-0.452488 l -3.212669,0 z m 0,0.701357 0,0.452489 0,0 0,0 0,0 0.0905,0 2.941177,0 c 0.02262,-0.158371 0.06787,-0.294118 0.06787,-0.452489 l -3.099547,0 z M 6,23.737559 l 0,0.678733 20,0 0,-0.678733 -8.41629,0 -0.135746,0 -11.447964,0 z"/></g></svg>