<svg xmlns="http://www.w3.org/2000/svg" id="Layer_1" width="32" height="32" version="1" viewBox="0 0 32 32"><g id="g6383"><path id="path7" fill="#3a6c87" d="M 32,16 C 32,24.835821 24.835821,31.973466 16,31.973466 7.164179,31.973466 0,24.835821 0,16 0,7.190713 7.164179,0.026534 16,0.026534 24.835821,0.026534 32,7.190713 32,16 l 0,0 z"/><path id="path3351" fill="#2f536e" d="M 17.193359 31.853516 C 17.875994 31.802435 18.568535 31.784204 19.224609 31.650391 C 20.266121 31.437963 21.271426 31.12431 22.228516 30.720703 C 23.185605 30.317096 24.0941 29.823539 24.945312 29.25 C 25.796525 28.676461 26.588619 28.023003 27.3125 27.300781 C 28.036381 26.578559 28.692485 25.787158 29.267578 24.9375 C 29.842671 24.087842 30.337337 23.178502 30.742188 22.222656 C 31.147038 21.26681 31.462628 20.263442 31.675781 19.222656 C 31.76247 18.799372 31.756108 18.346971 31.808594 17.912109 L 25.275391 11.378906 C 25.252771 11.356286 25.219487 11.339844 25.185547 11.339844 C 25.140297 11.362464 25.095703 11.407873 25.095703 11.453125 L 25.095703 11.65625 C 25.005203 11.769372 24.891279 11.859534 24.800781 11.972656 C 24.710281 12.085778 24.642578 12.244459 24.642578 12.470703 L 24.890625 12.71875 L 24.869141 12.71875 L 24.869141 13.398438 L 25.095703 13.625 L 24.642578 13.625 L 24.642578 15.433594 L 24.869141 15.660156 L 24.642578 15.660156 L 24.642578 16.3125 L 22.886719 14.556641 C 22.885643 14.555565 22.883923 14.55572 22.882812 14.554688 C 22.857156 14.530871 22.821935 14.517689 22.787109 14.529297 C 22.741859 14.551917 22.697266 14.597325 22.697266 14.642578 L 22.697266 14.824219 C 22.606766 14.937341 22.537764 14.981768 22.447266 15.072266 C 22.402016 15.117516 22.357422 15.184893 22.357422 15.275391 C 22.334802 15.320641 22.334802 15.388345 22.357422 15.433594 L 22.583984 15.660156 L 22.357422 15.660156 L 22.357422 16.339844 L 22.583984 16.566406 L 22.357422 16.566406 L 22.357422 17.470703 L 21 16.113281 L 20.546875 15.660156 L 20.320312 15.660156 L 20.320312 15.71875 L 19.277344 14.675781 C 19.257994 14.656431 19.236311 14.637881 19.212891 14.619141 C 19.206677 14.615413 19.195799 14.605431 19.189453 14.601562 L 19.1875 14.599609 L 16.191406 11.603516 C 16.189801 11.60191 16.185387 11.603095 16.183594 11.601562 C 16.16149 11.581088 16.1279 11.566406 16.089844 11.566406 C 16.044594 11.566406 16 11.634434 16 11.679688 L 16 11.882812 C 15.728506 12.335301 15.140316 12.652166 14.642578 13.082031 C 14.257964 13.421397 13.940594 13.850891 13.917969 14.484375 C 13.969218 14.527082 14.010851 14.583801 14.050781 14.640625 C 14.066321 14.662795 14.084869 14.682458 14.097656 14.707031 C 14.138725 14.78609 14.167969 14.875366 14.167969 14.982422 L 14.394531 15.208984 L 14.357422 15.208984 L 13.824219 14.675781 C 13.804869 14.656431 13.783206 14.637881 13.759766 14.619141 C 13.646645 14.551271 13.510744 14.461916 13.375 14.326172 C 13.261878 14.439295 13.126794 14.528643 13.013672 14.619141 C 12.90055 14.709641 12.832031 14.800613 12.832031 14.958984 L 13.082031 15.208984 L 12.810547 15.208984 L 12.810547 15.886719 L 13.037109 16.113281 L 12.357422 16.113281 L 11.904297 15.660156 L 11.679688 15.660156 L 11.679688 15.886719 L 11.90625 16.113281 L 11.595703 16.113281 L 6.8691406 11.386719 C 6.8691406 11.386719 6.8671875 11.384766 6.8671875 11.384766 C 6.8412126 11.359339 6.806278 11.339844 6.7695312 11.339844 C 6.7242812 11.362464 6.6796875 11.407873 6.6796875 11.453125 L 6.6796875 11.65625 C 6.5891875 11.769372 6.4752636 11.83691 6.3847656 11.972656 C 6.2942656 12.085778 6.2265625 12.267083 6.2265625 12.470703 L 6.453125 12.697266 L 6.453125 13.375 L 6.703125 13.625 L 6.2363281 13.625 L 6.2265625 13.615234 L 6.2265625 13.625 L 6.2265625 15.433594 L 6.453125 15.660156 L 6.2265625 15.660156 L 6.2265625 17.697266 L 6.453125 17.923828 L 6.2265625 17.923828 L 6.1132812 17.923828 L 6.2265625 18.037109 L 6.2265625 19.732422 L 6.4765625 19.982422 L 6 19.982422 L 6 20.660156 L 17.193359 31.853516 z "/><path id="path9" fill="#fff" d="m 6.769231,11.339369 c -0.04525,0.02262 -0.0905,0.06787 -0.0905,0.113122 l 0,0.20362 c -0.0905,0.113122 -0.20362,0.180996 -0.294118,0.316742 -0.0905,0.113122 -0.158371,0.294118 -0.158371,0.497738 l 1.131221,0 c 0,-0.226244 -0.06787,-0.384616 -0.158371,-0.497738 C 7.08597,11.837107 6.972848,11.769233 6.904975,11.656111 l 0,-0.20362 c 0,-0.04525 -0.06787,-0.113122 -0.135746,-0.113122 l 0,0 z m 18.416289,0 c -0.04525,0.02262 -0.0905,0.06787 -0.0905,0.113122 l 0,0.20362 c -0.0905,0.113122 -0.20362,0.20362 -0.294118,0.316742 -0.0905,0.113122 -0.158371,0.271494 -0.158371,0.497738 l 1.131222,0 c 0,-0.226244 -0.06787,-0.384616 -0.158371,-0.497738 -0.113123,-0.135746 -0.226245,-0.226244 -0.316743,-0.339366 l 0,-0.180996 c 0.02262,-0.04525 -0.04525,-0.113122 -0.113122,-0.113122 l 0,0 z m -9.095023,0.226244 c -0.04525,0 -0.0905,0.06787 -0.0905,0.113123 l 0,0.20362 c -0.271494,0.452488 -0.859729,0.76923 -1.357467,1.199095 -0.384614,0.339366 -0.701356,0.769231 -0.723981,1.402715 0.135747,0.113121 0.248869,0.271492 0.248869,0.497737 l 3.868778,0 c 0,-0.226245 0.113122,-0.384616 0.248869,-0.497737 0,-0.226245 -0.04525,-0.429864 -0.135747,-0.61086 -0.135747,-0.339367 -0.384615,-0.588235 -0.633484,-0.81448 -0.497738,-0.429864 -1.085973,-0.746606 -1.312217,-1.199095 l 0,-0.20362 c 0.02262,-0.04525 -0.04525,-0.0905 -0.113123,-0.0905 l 0,0 z m -9.638008,1.131222 0,0.678733 0.678732,0 0,-0.678733 -0.678732,0 z m 18.416289,0.02262 0,0.678733 0.678733,0 0,-0.678733 -0.678733,0 z m -18.642534,0.904978 0,1.809954 1.131221,0 0,-1.809954 0.113123,0 c 0,0 0,0 0,0 l -1.244344,0 c 0,0 0,-0.02262 0,0 l 0,0 z m 18.41629,0 0,1.809954 1.131222,0 0,-1.809954 -1.131222,0 z M 13.375566,14.32579 c -0.113122,0.113123 -0.248869,0.203619 -0.361991,0.294117 -0.113122,0.0905 -0.180996,0.180996 -0.180996,0.339367 l 1.108598,0 c 0,-0.158371 -0.06787,-0.248869 -0.180996,-0.339367 -0.113122,-0.06787 -0.248869,-0.15837 -0.384615,-0.294117 0,0 0,0 0,0 l 0,0 z m 5.452488,0 c -0.113122,0.113123 -0.248869,0.203619 -0.361991,0.294117 -0.113122,0.0905 -0.180995,0.180996 -0.180995,0.339367 l 1.108597,0 c 0,-0.158371 -0.06787,-0.248869 -0.180995,-0.339367 -0.113123,-0.06787 -0.248869,-0.15837 -0.384616,-0.294117 0.02262,0.02262 0,0 0,0 l 0,0 z M 9.16742,14.529409 c -0.04525,0.02262 -0.0905,0.06787 -0.0905,0.113123 l 0,0.180995 c -0.0905,0.113122 -0.158371,0.158371 -0.248869,0.248869 -0.04525,0.04525 -0.06787,0.113122 -0.0905,0.20362 -0.02262,0.04525 -0.02262,0.113122 -0.02262,0.158371 l 0.904978,0 c 0,-0.06787 0,-0.113122 0,-0.158371 -0.02262,-0.0905 -0.06787,-0.158371 -0.113123,-0.20362 -0.06787,-0.0905 -0.158371,-0.135747 -0.226244,-0.248869 l 0,-0.180995 c 0.02262,-0.06787 -0.04525,-0.135747 -0.113122,-0.113123 l 0,0 z m 13.61991,0 c -0.04525,0.02262 -0.0905,0.06787 -0.0905,0.113123 l 0,0.180995 c -0.0905,0.113122 -0.158371,0.158371 -0.248869,0.248869 -0.04525,0.04525 -0.0905,0.113122 -0.0905,0.20362 -0.02262,0.04525 -0.02262,0.113122 0,0.158371 l 0.904977,0 c 0,-0.06787 0,-0.113122 -0.02262,-0.158371 -0.02262,-0.0905 -0.04525,-0.135747 -0.0905,-0.20362 -0.06787,-0.0905 -0.158371,-0.135747 -0.226244,-0.248869 l 0,-0.180995 c 0,-0.06787 -0.06787,-0.135747 -0.135747,-0.113123 l 0,0 z m -9.977375,0.678734 0,0.678733 0.226244,0 0,-0.339367 c 0,-0.04525 0.04525,-0.113122 0.0905,-0.113122 0.06787,-0.02262 0.135747,0.04525 0.135747,0.113122 l 0,0.339367 0.226244,0 0,-0.339367 c 0,-0.04525 0.02262,-0.0905 0.06787,-0.113122 0.06787,-0.02262 0.158372,0.04525 0.158372,0.113122 l 0,0.339367 0.226244,0 0,-0.678733 -1.131222,0 z m 1.38009,0 0,0.678733 0,0.06787 0,0 0,0.04525 0,3.755656 0.226245,0 0,-3.755653 0,-0.113122 0.113121,0 3.190046,0 0.0905,0 0,0.113122 0,3.755656 0.226244,0 0,-3.755653 0,-0.02262 c 0,0 0,-0.02262 0,-0.02262 l 0,-0.746607 -3.846154,0 z m 4.095023,0 0,0.678733 0.226244,0 0,-0.339367 c 0,-0.04525 0.02262,-0.0905 0.06787,-0.113122 0.06787,-0.02262 0.158371,0.04525 0.158371,0.113122 l 0,0.339367 0.226244,0 0,-0.339367 c 0,-0.04525 0.04525,-0.113122 0.0905,-0.113122 0.06787,-0.02262 0.135747,0.04525 0.135747,0.113122 l 0,0.339367 0.226244,0 0,-0.678733 -1.131222,0 z m -3.846154,0.226244 c 0,0 0,0 0,0 l 0,0 c 0.02262,0 0.02262,0 0.02262,0 0,0 0.02262,0 0.02262,0 0.02262,0 0.02262,0 0.04525,0 l 3.190046,0 c 0.06787,0 0.113122,0.06787 0.113122,0.113122 0,0.06787 -0.06787,0.113122 -0.113122,0.113122 l -3.190042,0 c -0.06787,0.02262 -0.135746,-0.02262 -0.15837,-0.06787 -0.02262,-0.06787 0.02262,-0.135747 0.06787,-0.158371 l 0,0 z m 7.918552,0.226244 0,0.678733 0.904977,0 0,-0.678733 -0.904977,0 z m -16.131222,0 0,2.0362 1.131221,0 0,-2.0362 -1.131221,0 z m 2.511312,0 0,0.678733 0.904978,0 0,-0.678733 -0.904978,0 z m 2.941177,0 0,0.226245 0.226244,0 0,-0.226245 -0.226244,0 z m 8.642534,0 0,0.226245 0.226244,0 0,-0.226245 -0.226244,0 z m 4.321267,0 c 0,0 0,0 0,0 l 0,0 0,2.0362 1.131222,0 0,-2.0362 0,0 c 0,0 0,0 0,0 l -1.131222,0 c 0,0 0,0 0,0 l 0,0 z m -13.41629,0.452489 0,0.248869 c 0.04525,0 0.0905,-0.02262 0.113122,-0.02262 0.226245,0 0.384616,0.113122 0.452489,0.226244 0.0905,0.113122 0.113122,0.248869 0.113122,0.361991 l 0,0.656109 0,0.113122 -0.113122,0 -0.565611,0 0,0.226244 0.904978,0 0,-1.809955 -0.904978,0 z m 1.131222,0 0,1.809955 1.583711,0 0,-1.809955 -1.583711,0 z m 2.285067,0 0,3.642534 0.452489,0 0,-2.330317 c 0,-0.180995 0.04525,-0.429864 0.20362,-0.656108 0.158371,-0.226245 0.429864,-0.40724 0.81448,-0.40724 0.40724,0 0.656108,0.180995 0.81448,0.40724 0.158371,0.226244 0.203619,0.475113 0.203619,0.656108 l 0,2.330317 0.452489,0 0,-3.642534 -2.941177,0 z m 3.642535,0 0,1.809955 1.58371,0 0,-1.809955 -1.58371,0 z m 1.809955,0 0,1.809955 0.904977,0 0,-0.226244 -0.565611,0 -0.113122,0 0,-0.113123 0,-0.656108 c 0,-0.113122 0.02262,-0.248869 0.113122,-0.361991 0.0905,-0.135747 0.248869,-0.226245 0.452489,-0.226245 0.04525,0 0.06787,0 0.113122,0 l 0,-0.226244 -0.904977,0 z m -6.923077,0.226244 c 0.226244,0 0.384615,0.113123 0.452489,0.226245 0.0905,0.113122 0.113122,0.248869 0.113122,0.361991 l 0,0.656108 0,0.113123 -0.113122,0 -0.904978,0 -0.113122,0 0,-0.113123 0,-0.656108 c 0,-0.113122 0.02262,-0.248869 0.113122,-0.361991 0.06787,-0.113122 0.226244,-0.226245 0.452489,-0.226245 l 0,0 z m 5.904977,0 c 0.226244,0 0.384615,0.113123 0.475113,0.226245 0.0905,0.113122 0.113122,0.248869 0.113122,0.361991 l 0,0.656108 0,0.113123 -0.113122,0 -0.904977,0 -0.113122,0 0,-0.113123 0,-0.656108 c 0,-0.113122 0.02262,-0.248869 0.113122,-0.361991 0.04525,-0.113122 0.20362,-0.226245 0.429864,-0.226245 l 0,0 z m 3.280543,0.226245 0,0.904977 0.904977,0 0,-0.904977 -0.904977,0 z m -13.61991,0 0,0.904977 0.904978,0 0,-0.904977 -0.904978,0 z m 2.60181,0 c -0.06787,0 -0.0905,0 -0.113122,0.02262 l 0,0.882353 0.452489,0 0,-0.542987 c 0,-0.06787 -0.02262,-0.158371 -0.06787,-0.248868 -0.04525,-0.04525 -0.113122,-0.113123 -0.271493,-0.113123 l 0,0 z m 1.83258,0 c -0.158371,0 -0.226245,0.04525 -0.271493,0.113122 -0.04525,0.06787 -0.06787,0.180995 -0.06787,0.248869 l 0,0.542986 0.678733,0 0,-0.542986 c 0,-0.06787 -0.02262,-0.158371 -0.06787,-0.248869 -0.06787,-0.04525 -0.113122,-0.113122 -0.271493,-0.113122 l 0,0 z m 2.941176,0 c -0.339367,0 -0.520362,0.135746 -0.633484,0.316742 -0.113123,0.180995 -0.158372,0.40724 -0.158372,0.542986 l 0,2.330317 1.583711,0 0,-2.330317 c 0,-0.135746 -0.04525,-0.361991 -0.158371,-0.542986 -0.113122,-0.180996 -0.294118,-0.316742 -0.633484,-0.316742 l 0,0 z m 2.963801,0 c -0.158371,0 -0.226244,0.04525 -0.271493,0.113122 -0.04525,0.06787 -0.06787,0.180995 -0.06787,0.248869 l 0,0.542986 0.678733,0 0,-0.542986 c 0,-0.06787 -0.02262,-0.158371 -0.06787,-0.248869 -0.06787,-0.04525 -0.135747,-0.113122 -0.271494,-0.113122 l 0,0 z m 1.809955,0 c -0.158371,0 -0.226244,0.04525 -0.271493,0.113122 -0.04525,0.06787 -0.06787,0.180995 -0.06787,0.248869 l 0,0.542986 0.452489,0 0,-0.882353 c -0.02262,0 -0.06787,-0.02262 -0.113122,-0.02262 l 0,0 z m 1.470588,1.131222 0,0.904977 0.904977,0 0,-0.904977 -0.904977,0 z m -13.61991,0 0,0.904977 0.904978,0 0,-0.904977 -0.904978,0 z m -2.624434,0.226244 0,0 0.113122,0 0,1.809955 1.131221,0 0,-1.809955 0.113123,0 c 0,0 0,0 0,0 l -1.357466,0 z m 18.529412,0 0,1.809955 1.131222,0 0,-1.809955 -1.131222,0 z m -13.41629,0.226244 0,0.452489 c 0.04525,0 0.0905,-0.02262 0.113122,-0.02262 0.226245,0 0.384616,0.113122 0.452489,0.226245 0.0905,0.135746 0.113122,0.271493 0.113122,0.36199 l 0,0.542987 0.226245,0 0,-1.583711 -0.904978,0 z m 1.131222,0 0,1.583711 0.226244,0 0,-0.542987 c 0,-0.113122 0.02262,-0.248868 0.113123,-0.36199 0.0905,-0.113123 0.248868,-0.226245 0.452488,-0.226245 0.226245,0 0.384616,0.113122 0.452489,0.226245 0.0905,0.135746 0.113122,0.271493 0.113122,0.36199 l 0,0.542987 0.226245,0 0,-1.58371 -1.583711,0 z m 5.927602,0 0,1.583711 0.226244,0 0,-0.542987 c 0,-0.113122 0.02262,-0.248868 0.113122,-0.36199 0.0905,-0.113123 0.248869,-0.226245 0.452489,-0.226245 0.226244,0 0.384615,0.113122 0.475113,0.226245 0.0905,0.135746 0.113122,0.271493 0.113122,0.36199 l 0,0.542987 0.226245,0 0,-1.583711 -1.606335,0 z m 1.809955,0 0,1.583711 0.226244,0 0,-0.542987 c 0,-0.0905 0.02262,-0.226244 0.113122,-0.36199 0.0905,-0.113123 0.248869,-0.226245 0.452489,-0.226245 0.04525,0 0.06787,0 0.113122,0.02262 l 0,-0.452489 -0.904977,0 z m -8.755657,0.678734 c -0.06787,0 -0.0905,0.02262 -0.113122,0.02262 l 0,0.904977 0.452489,0 0,-0.542987 c 0,-0.06787 -0.02262,-0.158371 -0.06787,-0.226244 -0.04525,-0.0905 -0.113122,-0.158371 -0.271493,-0.158371 l 0,0 z m 9.547512,0 c -0.158371,0 -0.226244,0.06787 -0.271493,0.135746 -0.04525,0.06787 -0.06787,0.180996 -0.06787,0.226244 l 0,0.542987 0.452489,0 0,-0.904977 c -0.02262,0.02262 -0.06787,0 -0.113122,0 l 0,0 z m 1.470588,0 0,0.904977 0.904977,0 0,-0.904976 -0.904977,0 z m -13.61991,0 0,0.904977 0.904978,0 0,-0.904976 -0.904978,0 z m 4.43439,0 c -0.158371,0 -0.226245,0.06787 -0.271493,0.135746 -0.04525,0.06787 -0.06787,0.180996 -0.06787,0.248869 l 0,0.542986 0.678733,0 0,-0.542985 c 0,-0.06787 -0.02262,-0.158371 -0.06787,-0.248869 -0.06787,-0.06787 -0.113122,-0.135746 -0.271493,-0.135746 l 0,0 z m 5.904977,0 c -0.158371,0 -0.226244,0.04525 -0.271493,0.135746 -0.04525,0.06787 -0.06787,0.180996 -0.06787,0.248869 l 0,0.542986 0.678733,0 0,-0.542985 c 0,-0.06787 -0.02262,-0.158371 -0.06787,-0.248869 -0.06787,-0.06787 -0.135747,-0.135746 -0.271494,-0.135746 l 0,0 z M 6,19.981899 l 0,0.678733 20,0 0,-0.678733 -4.864253,0 -0.81448,0 -0.678733,0 -1.131222,0 -1.357466,0 -2.036199,0 -1.38009,0 -1.131222,0 -0.678733,0 -0.791856,0 -5.135746,0 z"/></g></svg>